<svg width="59" height="20" viewBox="0 0 59 20" fill="none" xmlns="http://www.w3.org/2000/svg">
<rect width="58.884" height="20" rx="2" fill="#7D50FF"/>
<rect width="58.884" height="20" rx="2" fill="#7849FF"/>
<rect width="58.884" height="20" rx="2" fill="url(#paint0_linear_1024_20948)"/>
<path d="M48.552 6.33395H45.42C45.036 6.84995 44.58 7.34195 44.124 7.79795H47.292C47.736 7.38995 48.204 6.83795 48.552 6.33395ZM50.796 10.714V8.62595H47.928V10.714H50.796ZM44.304 8.62595V10.714H47.064V8.62595H44.304ZM45.852 14.434H50.52C51.708 14.434 51.888 14.098 52.032 12.526C52.26 12.67 52.62 12.802 52.884 12.85C52.68 14.71 52.32 15.25 50.52 15.25H45.912C44.028 15.25 43.44 14.914 43.44 13.534V8.42195C43.092 8.73395 42.732 8.99795 42.372 9.24995C42.3 9.04595 42.036 8.61395 41.892 8.40995C43.344 7.52195 44.808 6.05795 45.636 4.44995L46.428 4.74995C46.284 5.01395 46.14 5.26595 45.984 5.52995H49.14L49.32 5.48195L49.908 5.90195C49.488 6.53795 48.936 7.22195 48.372 7.79795H51.672V12.094H50.796V11.566H44.304V13.546C44.304 14.254 44.556 14.434 45.852 14.434Z" fill="white"/>
<path d="M36.108 11.9019H38.94V10.3539H36.108V11.9019ZM32.496 11.9019H35.22V10.3539H32.592C32.592 10.8339 32.568 11.3619 32.496 11.9019ZM36.9 6.04591H33.552C33.252 6.45391 32.916 6.84991 32.556 7.24591H35.94C36.288 6.89791 36.636 6.45391 36.9 6.04591ZM32.592 8.06191V9.57391H35.22V8.06191H32.592ZM38.94 9.57391V8.06191H36.108V9.57391H38.94ZM39.84 7.24591V14.3019C39.84 14.8299 39.708 15.0939 39.336 15.2499C38.952 15.3939 38.292 15.4059 37.308 15.4059C37.272 15.1539 37.116 14.7699 36.984 14.5299C37.74 14.5539 38.46 14.5419 38.664 14.5419C38.868 14.5299 38.94 14.4699 38.94 14.2899V12.7059H36.108V15.1899H35.22V12.7059H32.364C32.124 13.7379 31.692 14.7579 30.888 15.5499C30.768 15.3699 30.396 15.0219 30.216 14.9139C31.536 13.5819 31.692 11.7099 31.692 10.2459V8.09791C31.392 8.36191 31.092 8.60191 30.768 8.84191C30.612 8.62591 30.312 8.33791 30.108 8.20591C31.704 7.11391 32.844 5.66191 33.444 4.46191L34.428 4.64191C34.308 4.85791 34.188 5.06191 34.056 5.28991H37.44L37.584 5.24191L38.172 5.66191C37.872 6.17791 37.428 6.75391 36.96 7.24591H39.84Z" fill="white"/>
<path d="M27.744 9.80192L27.036 9.62193C27.192 9.23793 27.396 8.72192 27.564 8.20592H21.792V7.42593H24.696V6.35792H22.236V5.60192H24.696V4.49792H25.572V5.60192H28.056V6.35792H25.572V7.42593H27.876L28.008 7.38992L28.584 7.54592C28.332 8.33792 28.02 9.23792 27.744 9.80192ZM24.852 9.80192L24.42 10.3179C24.06 9.94593 23.316 9.44192 22.704 9.10592L23.112 8.66193C23.724 8.97393 24.468 9.45392 24.852 9.80192ZM21.828 10.1979L22.26 9.72993C22.872 10.0419 23.652 10.5459 24.012 10.9179L23.592 11.4339C23.22 11.0619 22.464 10.5339 21.828 10.1979ZM21.108 6.52592L20.508 7.16192C20.112 6.66992 19.32 5.90192 18.672 5.33792L19.236 4.76192C19.884 5.30192 20.724 6.03393 21.108 6.52592ZM20.496 13.2579L21.564 12.4059C21.648 12.6339 21.804 12.9819 21.912 13.1499C20.04 14.6979 19.74 14.9499 19.572 15.2019V15.2139C19.476 15.0219 19.248 14.7219 19.104 14.5779C19.308 14.4099 19.668 14.0259 19.668 13.4499V9.09393H17.904V8.22992H20.496V13.2579ZM28.692 12.2979H25.536C25.092 13.4739 24.084 14.6259 21.9 15.5139C21.792 15.2979 21.54 14.9739 21.348 14.8179C23.184 14.1099 24.12 13.2099 24.588 12.2979H21.552V11.5059H24.876C25.008 11.0139 25.032 10.5339 25.032 10.0899V8.67392H25.896V10.1139C25.896 10.5579 25.872 11.0259 25.776 11.5059H28.692V12.2979ZM25.548 13.2339L26.088 12.7299C27.048 13.3659 28.26 14.2779 28.836 14.9139L28.284 15.4899C27.708 14.8659 26.532 13.8939 25.548 13.2339Z" fill="white"/>
<path d="M12.48 12.334L13.236 11.866C14.436 12.766 15.924 14.038 16.668 14.914L15.852 15.454C15.168 14.602 13.692 13.27 12.48 12.334ZM9.396 11.902L10.332 12.262C9.444 13.438 8.016 14.686 6.708 15.49C6.528 15.298 6.204 15.022 6 14.866C7.284 14.134 8.7 12.934 9.396 11.902ZM8.208 6.23799V9.93399H14.532V6.23799H8.208ZM7.308 5.38599H15.468V10.798H7.308V5.38599Z" fill="white"/>
<defs>
<linearGradient id="paint0_linear_1024_20948" x1="-1.94107e-07" y1="10" x2="58.8737" y2="10.7787" gradientUnits="userSpaceOnUse">
<stop stop-color="#3363FF"/>
<stop offset="1" stop-color="#7999FF"/>
</linearGradient>
</defs>
</svg>
