<svg width="59" height="20" viewBox="0 0 59 20" fill="none" xmlns="http://www.w3.org/2000/svg">
<rect width="58.848" height="20" rx="2" fill="#7D50FF"/>
<rect width="58.848" height="20" rx="2" fill="url(#paint0_linear_1024_20946)"/>
<rect width="58.848" height="20" rx="2" fill="url(#paint1_linear_1024_20946)"/>
<path d="M48.516 6.33395H45.384C45 6.84995 44.544 7.34195 44.088 7.79795H47.256C47.7 7.38995 48.168 6.83795 48.516 6.33395ZM50.76 10.714V8.62595H47.892V10.714H50.76ZM44.268 8.62595V10.714H47.028V8.62595H44.268ZM45.816 14.434H50.484C51.672 14.434 51.852 14.098 51.996 12.526C52.224 12.67 52.584 12.802 52.848 12.85C52.644 14.71 52.284 15.25 50.484 15.25H45.876C43.992 15.25 43.404 14.914 43.404 13.534V8.42195C43.056 8.73395 42.696 8.99795 42.336 9.24995C42.264 9.04595 42 8.61395 41.856 8.40995C43.308 7.52195 44.772 6.05795 45.6 4.44995L46.392 4.74995C46.248 5.01395 46.104 5.26595 45.948 5.52995H49.104L49.284 5.48195L49.872 5.90195C49.452 6.53795 48.9 7.22195 48.336 7.79795H51.636V12.094H50.76V11.566H44.268V13.546C44.268 14.254 44.52 14.434 45.816 14.434Z" fill="white"/>
<path d="M36.072 11.9019H38.904V10.3539H36.072V11.9019ZM32.46 11.9019H35.184V10.3539H32.556C32.556 10.8339 32.532 11.3619 32.46 11.9019ZM36.864 6.04591H33.516C33.216 6.45391 32.88 6.84991 32.52 7.24591H35.904C36.252 6.89791 36.6 6.45391 36.864 6.04591ZM32.556 8.06191V9.57391H35.184V8.06191H32.556ZM38.904 9.57391V8.06191H36.072V9.57391H38.904ZM39.804 7.24591V14.3019C39.804 14.8299 39.672 15.0939 39.3 15.2499C38.916 15.3939 38.256 15.4059 37.272 15.4059C37.236 15.1539 37.08 14.7699 36.948 14.5299C37.704 14.5539 38.424 14.5419 38.628 14.5419C38.832 14.5299 38.904 14.4699 38.904 14.2899V12.7059H36.072V15.1899H35.184V12.7059H32.328C32.088 13.7379 31.656 14.7579 30.852 15.5499C30.732 15.3699 30.36 15.0219 30.18 14.9139C31.5 13.5819 31.656 11.7099 31.656 10.2459V8.09791C31.356 8.36191 31.056 8.60191 30.732 8.84191C30.576 8.62591 30.276 8.33791 30.072 8.20591C31.668 7.11391 32.808 5.66191 33.408 4.46191L34.392 4.64191C34.272 4.85791 34.152 5.06191 34.02 5.28991H37.404L37.548 5.24191L38.136 5.66191C37.836 6.17791 37.392 6.75391 36.924 7.24591H39.804Z" fill="white"/>
<path d="M24.564 8.16996H22.56V9.22596H24.564V8.16996ZM27.456 8.16996H25.368V9.22596H27.456V8.16996ZM25.368 10.978H27.456V9.88596H25.368V10.978ZM22.56 10.978H24.564V9.88596H22.56V10.978ZM22.56 11.662V13.666H21.708V7.48596H25.104C24.372 7.12596 23.508 6.74196 22.776 6.46596L23.328 5.96196C23.856 6.15396 24.48 6.40596 25.068 6.65796C25.656 6.38196 26.268 5.99796 26.76 5.63796H21.72V4.92996H27.576L27.756 4.88196L28.296 5.30196C27.648 5.93796 26.736 6.56196 25.848 7.01796C26.184 7.17396 26.496 7.34196 26.736 7.48596H28.308V12.766C28.308 13.21 28.212 13.414 27.9 13.546C27.588 13.678 27.084 13.69 26.28 13.69C26.244 13.462 26.148 13.162 26.04 12.946C26.604 12.97 27.108 12.958 27.252 12.958C27.408 12.958 27.456 12.91 27.456 12.754V11.662H25.368V13.618H24.564V11.662H22.56ZM20.832 6.93396L20.184 7.52196C19.764 6.96996 18.864 6.09396 18.144 5.46996L18.768 4.96596C19.476 5.55396 20.4 6.39396 20.832 6.93396ZM20.436 8.96196V13.21C20.676 13.342 20.928 13.57 21.348 13.822C22.152 14.314 23.16 14.41 24.492 14.41C25.896 14.41 27.696 14.302 28.92 14.182C28.824 14.41 28.692 14.806 28.668 15.058C27.84 15.106 25.752 15.178 24.468 15.178C23.004 15.178 22.008 15.034 21.168 14.518C20.7 14.23 20.28 13.834 20.004 13.834C19.596 13.834 19.008 14.518 18.408 15.322L17.844 14.59C18.456 13.942 19.056 13.402 19.572 13.186V9.80196H17.892V8.96196H20.436Z" fill="white"/>
<path d="M14.208 11.23H8.508V12.406H14.208V11.23ZM8.508 14.314H14.208V13.102H8.508V14.314ZM7.632 15.442V10.51H15.108V15.394H14.208V15.034H8.508V15.442H7.632ZM10.56 6.694V9.034H12.084V6.694H10.56ZM12.924 9.034H16.692V9.778H6V9.034H9.72V6.694H6.672V5.95H8.928C8.784 5.602 8.484 5.11 8.172 4.774L8.928 4.474C9.312 4.846 9.648 5.35 9.804 5.722L9.288 5.95H12.756C13.068 5.518 13.416 4.918 13.608 4.474L14.484 4.762C14.256 5.17 13.992 5.602 13.728 5.95H16.092V6.694H12.924V9.034ZM7.212 7.126L7.944 6.85C8.376 7.378 8.76 8.086 8.916 8.59L8.124 8.902C8.004 8.398 7.62 7.666 7.212 7.126ZM14.34 8.914L13.644 8.674C13.98 8.182 14.412 7.366 14.64 6.802L15.432 7.066C15.096 7.726 14.676 8.446 14.34 8.914Z" fill="white"/>
<defs>
<linearGradient id="paint0_linear_1024_20946" x1="-1.93989e-07" y1="10" x2="58.8377" y2="10.7778" gradientUnits="userSpaceOnUse">
<stop stop-color="#1F69FF"/>
<stop offset="1" stop-color="#3592FF"/>
</linearGradient>
<linearGradient id="paint1_linear_1024_20946" x1="-1.93989e-07" y1="10" x2="58.8377" y2="10.7778" gradientUnits="userSpaceOnUse">
<stop stop-color="#7D3DFF"/>
<stop offset="1" stop-color="#A77BFF"/>
</linearGradient>
</defs>
</svg>
