<svg width="67" height="20" viewBox="0 0 67 20" fill="none" xmlns="http://www.w3.org/2000/svg">
<rect width="66.824" height="20" rx="2" fill="#7D50FF"/>
<rect width="66.824" height="20" rx="2" fill="#7849FF"/>
<rect width="66.824" height="20" rx="2" fill="url(#paint0_linear_1024_20944)"/>
<path d="M54.856 5.82993V7.18593H60.436V5.82993H54.856ZM53.944 5.04993H61.384V7.97793H53.944V5.04993ZM57.1 10.6179H58.036V11.7339C58.036 12.9819 57.496 14.5179 53.056 15.5139C52.948 15.3219 52.672 14.9619 52.468 14.7819C56.764 13.9419 57.1 12.6699 57.1 11.7099V10.6179ZM57.964 13.7379L58.408 13.0899C59.824 13.5579 61.78 14.2659 62.824 14.7699L62.356 15.5139C61.372 15.0099 59.428 14.2419 57.964 13.7379ZM53.524 9.02193H61.864V13.3299H60.916V9.86193H54.424V13.4139H53.524V9.02193Z" fill="#FFE3B8"/>
<path d="M43.864 12.142L44.02 12.994C42.736 13.426 41.368 13.894 40.3 14.242L40.096 13.342C40.54 13.21 41.092 13.042 41.704 12.838V9.61001H40.336V8.77001H41.704V6.16601H40.216V5.32601H43.936V6.16601H42.556V8.77001H43.768V9.61001H42.556V12.574L43.864 12.142ZM45.34 8.08601V9.62201H47.164V8.08601H45.34ZM45.34 5.84201V7.35401H47.164V5.84201H45.34ZM49.768 7.35401V5.84201H47.932V7.35401H49.768ZM49.768 9.62201V8.08601H47.932V9.62201H49.768ZM48.004 14.266H51.184V15.082H43.456V14.266H47.104V12.622H44.38V11.806H47.104V10.402H44.524V5.06201H50.62V10.402H48.004V11.806H50.8V12.622H48.004V14.266Z" fill="#FFE3B8"/>
<path d="M30.748 6.16596H29.92C29.632 6.72996 29.308 7.22196 28.948 7.60596C28.78 7.49796 28.408 7.29396 28.192 7.19796C28.84 6.52596 29.368 5.51796 29.656 4.48596L30.52 4.62996C30.436 4.92996 30.34 5.20596 30.22 5.49396H33.424V6.16596H31.6C31.828 6.53796 32.032 6.93396 32.128 7.20996L31.372 7.48596C31.264 7.12596 31 6.60996 30.748 6.16596ZM36.856 13.222H31.084V14.374H36.856V13.222ZM36.232 9.99396H31.084V11.014H36.232V9.99396ZM31.084 11.698V12.526H37.732V15.454H36.856V15.07H31.084V15.478H30.196V9.30996H37.108V11.698H31.084ZM32.92 7.11396L33.712 6.94596C33.88 7.22196 34.084 7.58196 34.192 7.86996H38.56V9.82596H37.672V8.57796H29.74V9.82596H28.876V7.86996H33.28C33.172 7.61796 33.052 7.34196 32.92 7.11396ZM35.272 5.50596H38.86V6.16596H36.724C37 6.52596 37.252 6.90996 37.384 7.18596L36.664 7.52196C36.508 7.14996 36.16 6.60996 35.812 6.16596H34.972C34.756 6.56196 34.516 6.92196 34.264 7.19796C34.108 7.06596 33.748 6.87396 33.532 6.77796C34.072 6.21396 34.48 5.36196 34.696 4.49796L35.56 4.64196C35.476 4.94196 35.38 5.21796 35.272 5.50596Z" fill="#FFE3B8"/>
<path d="M17.86 11.0139L20.188 10.3539C20.188 10.5939 20.224 10.9179 20.26 11.1099C17.08 12.0579 16.672 12.2139 16.408 12.4059C16.36 12.2259 16.228 11.8299 16.132 11.5899C16.384 11.5419 16.684 11.2539 17.056 10.7979C17.284 10.5579 17.788 9.92193 18.328 9.11793C16.804 9.32193 16.516 9.40593 16.336 9.48993C16.288 9.29793 16.156 8.88993 16.06 8.64993C16.264 8.60193 16.48 8.30193 16.756 7.90593C17.02 7.50993 17.932 5.96193 18.448 4.49792L19.264 4.89392C18.7 6.16592 17.98 7.47393 17.248 8.49393L18.856 8.31393C19.12 7.89393 19.372 7.44993 19.612 7.01793L20.344 7.46193C19.612 8.72193 18.736 9.96993 17.86 11.0139ZM20.26 12.4059L20.416 13.1739C19.012 13.7379 17.512 14.3019 16.396 14.7219L16.18 13.8459C17.2 13.5219 18.748 12.9579 20.26 12.4059ZM24.556 6.12993H22.648C22.612 6.96993 22.552 7.78593 22.48 8.54192C22.9 9.90993 23.524 11.2179 24.316 12.2979C24.904 11.4699 25.372 10.4859 25.672 9.33393H23.62C23.92 8.49393 24.28 7.24593 24.556 6.12993ZM26.14 8.50593L26.692 8.73393C26.332 10.4619 25.696 11.8659 24.868 12.9699C25.54 13.7259 26.32 14.3259 27.172 14.7339C26.98 14.9019 26.704 15.2259 26.56 15.4659C25.72 15.0219 24.976 14.3979 24.316 13.6539C23.596 14.4459 22.768 15.0459 21.892 15.5019C21.772 15.2859 21.46 14.9499 21.268 14.8179C22.204 14.3859 23.044 13.7739 23.776 12.9819C23.188 12.1779 22.684 11.2659 22.276 10.2699C21.964 12.4059 21.4 14.1579 20.368 15.5019C20.224 15.3579 19.804 15.0699 19.6 14.9499C21.22 13.0419 21.628 9.94593 21.772 6.12993H20.44V5.28993H25.66C25.396 6.32192 25.048 7.55793 24.748 8.54192H25.984L26.14 8.50593Z" fill="#FFE3B8"/>
<path d="M7.408 11.518V13.918C8.128 14.206 9.052 14.302 10.24 14.302C10.828 14.314 14.476 14.314 15.22 14.278C15.064 14.494 14.908 14.902 14.848 15.166H10.264C7.708 15.166 6.292 14.77 5.416 13.138C5.272 14.05 5.068 14.842 4.708 15.49C4.564 15.382 4.204 15.154 4 15.058C4.684 13.858 4.804 11.986 4.828 9.88597L5.644 9.93397C5.632 10.522 5.608 11.098 5.572 11.638C5.824 12.43 6.148 13.006 6.604 13.426V9.02197H4.3V8.22997H6.436V6.75397H4.528V5.96197H6.436V4.52197H7.264V5.96197H9.136V6.75397H7.264V8.22997H9.376V8.74597C10.444 8.13397 11.008 7.19797 11.176 5.78197H9.508V5.01397H14.752C14.752 5.01397 14.752 5.26597 14.74 5.38597C14.632 7.52197 14.524 8.36197 14.26 8.66197C14.08 8.86597 13.864 8.93797 13.564 8.96197C13.288 8.99797 12.784 8.98597 12.256 8.96197C12.232 8.72197 12.148 8.40997 12.028 8.19397C12.52 8.24197 12.988 8.24197 13.168 8.24197C13.336 8.25397 13.456 8.22997 13.528 8.13397C13.684 7.95397 13.792 7.34197 13.876 5.78197H12.04C11.8 7.56997 11.056 8.68597 9.772 9.44197C9.676 9.33397 9.472 9.15397 9.292 9.02197H7.408V10.726H9.268V11.518H7.408ZM10.744 10.366V12.574H13.6V10.366H10.744ZM9.904 13.318V9.62197H14.476V13.318H9.904Z" fill="#FFE3B8"/>
<defs>
<linearGradient id="paint0_linear_1024_20944" x1="-2.20281e-07" y1="10" x2="66.8089" y2="11.0029" gradientUnits="userSpaceOnUse">
<stop stop-color="#433422"/>
<stop offset="0.9999" stop-color="#625137"/>
</linearGradient>
</defs>
</svg>
