<svg width="13" height="810" viewBox="0 0 13 810" fill="none" xmlns="http://www.w3.org/2000/svg">
<g clip-path="url(#clip0_3906_31351)">
<path d="M0 370L10.8281 380.828C11.5783 381.578 12 382.596 12 383.657V428.343C12 429.404 11.5783 430.422 10.8281 431.172L0 442V370Z" fill="white"/>
<path d="M12 383.657V428.343C12 429.404 11.5783 430.422 10.8281 431.172L0 442V810V811H1V442.414L11.5352 431.879C12.4728 430.941 13 429.669 13 428.343V383.657C13 382.331 12.4728 381.059 11.5352 380.121L1 369.586V0H0V1V370L10.8281 380.828C11.5783 381.578 12 382.596 12 383.657Z" fill="#EBEBEB"/>
</g>
<defs>
<clipPath id="clip0_3906_31351">
<rect width="13" height="810" fill="white"/>
</clipPath>
</defs>
</svg>
