<svg width="36" height="36" viewBox="0 0 36 36" fill="none" xmlns="http://www.w3.org/2000/svg">
<path fill-rule="evenodd" clip-rule="evenodd" d="M36 18C36 27.9411 27.9411 36 18 36C17.9265 36 17.853 35.9996 17.7797 35.9987L19.0107 31.4044C26.0425 30.5855 31.5 24.6086 31.5 17.3571C31.5 9.54626 25.168 3.21429 17.3571 3.21429C9.54626 3.21429 3.21429 9.54626 3.21429 17.3571C3.21429 20.6054 4.30938 23.598 6.15051 25.9857L4.96432 30.4126C1.88829 27.1831 0 22.8121 0 18C0 8.05887 8.05887 0 18 0C27.9411 0 36 8.05887 36 18ZM9.90057 29.3769L8.80226 33.4758C10.188 34.3012 11.6939 34.9457 13.2876 35.3769L14.4088 31.1922C12.7858 30.8481 11.2656 30.2255 9.90057 29.3769Z" fill="#3363FF"/>
<path d="M24.9794 17.2C26.4329 18.0936 27.1266 19.836 26.685 21.4841L23.1421 34.706L18.485 33.4581L23.1438 16.0715L24.9794 17.2Z" fill="#3363FF"/>
<path d="M7.08631 11.7112C7.58806 10.0986 9.08048 9 10.7693 9H27.0011L26.3649 11.0883C25.8703 12.7119 24.3725 13.8214 22.6752 13.8214H6.42969L7.08631 11.7112Z" fill="#3363FF"/>
<path d="M19.2578 13.0911L13.7322 33.713L9.07504 32.4651L14.6007 11.8432L19.2578 13.0911Z" fill="#3363FF"/>
</svg>
