<svg width="181" height="56" viewBox="0 0 181 56" fill="none" xmlns="http://www.w3.org/2000/svg">
<path d="M123.494 16.7439C126.31 17.6186 127.718 19.4853 127.718 22.3439C127.718 24.4559 126.982 26.0986 125.51 27.2719C124.038 28.4239 121.915 28.9999 119.142 28.9999H110.438V5.57593H118.182C120.678 5.57593 122.673 6.15193 124.166 7.30393C125.659 8.4346 126.406 9.99193 126.406 11.9759C126.406 14.1733 125.435 15.7626 123.494 16.7439ZM113.83 8.58393V15.5919H117.702C119.302 15.5919 120.55 15.2719 121.446 14.6319C122.342 13.9919 122.79 13.1279 122.79 12.0399C122.79 10.9519 122.342 10.1093 121.446 9.51193C120.55 8.89326 119.302 8.58393 117.702 8.58393H113.83ZM118.662 25.9919C120.475 25.9919 121.83 25.6719 122.726 25.0319C123.643 24.3706 124.102 23.4426 124.102 22.2479C124.102 21.0533 123.643 20.1253 122.726 19.4639C121.83 18.7813 120.475 18.4399 118.662 18.4399H113.83V25.9919H118.662Z" fill="#333333"/>
<path d="M94.1297 5.57593C96.4124 5.57593 98.4711 6.03459 100.306 6.95193C102.14 7.86926 103.58 9.21326 104.626 10.9839C105.671 12.7546 106.194 14.8453 106.194 17.2559C106.194 19.7093 105.671 21.8213 104.626 23.5919C103.58 25.3413 102.14 26.6853 100.306 27.6239C98.4924 28.5413 96.4337 28.9999 94.1297 28.9999H87.2817V5.57593H94.1297ZM93.6817 25.9919C96.4764 25.9919 98.6524 25.2346 100.21 23.7199C101.788 22.1839 102.578 20.0293 102.578 17.2559C102.578 14.5039 101.788 12.3706 100.21 10.8559C98.6524 9.31993 96.4764 8.55193 93.6817 8.55193H90.7057V25.9919H93.6817Z" fill="#333333"/>
<path d="M66.3521 5.57593H84.2401V8.61593H77.0081V28.9999H73.5521V8.61593H66.3521V5.57593Z" fill="#333333"/>
<path d="M110.038 5.17578H118.182V5.57617H110.438V29H119.142C121.742 29 123.77 28.494 125.227 27.4814L125.51 27.2725C126.982 26.0991 127.718 24.4557 127.718 22.3438C127.718 19.4853 126.31 17.6188 123.494 16.7441C125.314 15.8241 126.281 14.3696 126.395 12.3809L126.406 11.9756C126.406 9.99178 125.659 8.4343 124.166 7.30371C122.766 6.22384 120.926 5.65056 118.645 5.58301L118.182 5.57617V5.17578C120.736 5.17578 122.825 5.76568 124.407 6.98535C126.007 8.19662 126.806 9.87515 126.806 11.9756C126.806 13.1344 126.55 14.1565 126.02 15.0244C125.628 15.6658 125.094 16.2087 124.429 16.6582C125.506 17.1105 126.364 17.7408 126.981 18.5596C127.748 19.5765 128.118 20.8476 128.118 22.3438L128.108 22.7539C128.017 24.7792 127.241 26.4044 125.76 27.585L125.757 27.5869C124.188 28.815 121.963 29.4004 119.142 29.4004H110.038V5.17578ZM123.702 22.248C123.702 21.2407 123.347 20.4716 122.639 19.9004L122.492 19.7881L122.483 19.7822C121.738 19.2142 120.592 18.8829 118.988 18.8438L118.662 18.8398H114.23V25.5918H118.662V25.9922H113.83V18.4404H118.662C120.475 18.4404 121.83 18.7814 122.726 19.4639C123.643 20.1252 124.102 21.0534 124.102 22.248L124.097 22.4688C124.043 23.5576 123.586 24.4122 122.726 25.0322L122.553 25.1484C121.659 25.7109 120.362 25.9922 118.662 25.9922V25.5918C120.441 25.5918 121.696 25.2753 122.493 24.7061C123.299 24.1248 123.702 23.322 123.702 22.248ZM122.39 12.04C122.39 11.0841 122.007 10.367 121.224 9.84473L121.219 9.84082C120.515 9.35479 119.541 9.06337 118.267 8.99805L117.702 8.98438H114.23V15.1924H117.702V15.5918H113.83V8.58398H117.702C119.302 8.584 120.55 8.89307 121.446 9.51172C122.342 10.109 122.79 10.9521 122.79 12.04L122.785 12.2412C122.733 13.2349 122.286 14.0318 121.446 14.6318L121.273 14.748C120.392 15.3104 119.202 15.5918 117.702 15.5918V15.1924C119.255 15.1924 120.41 14.8807 121.214 14.3066C122.006 13.7407 122.39 12.9969 122.39 12.04Z" fill="#333333"/>
<path d="M86.8818 5.17578H94.1299V5.57617H87.2822V29H94.1299L94.5586 28.9941C96.5478 28.944 98.3494 28.5435 99.9629 27.791L100.306 27.624C102.14 26.6854 103.581 25.3411 104.626 23.5918C105.671 21.8212 106.193 19.7091 106.193 17.2559C106.193 14.9957 105.734 13.0169 104.815 11.3193L104.626 10.9844C103.646 9.32446 102.319 8.0389 100.646 7.12891L100.306 6.95215C98.5855 6.09209 96.6686 5.63475 94.5547 5.58105L94.1299 5.57617V5.17578C96.4673 5.1758 98.5883 5.64579 100.484 6.59375C102.388 7.54554 103.885 8.94367 104.97 10.7803C106.057 12.6224 106.594 14.7862 106.594 17.2559C106.594 19.7668 106.058 21.9517 104.97 23.7949L104.969 23.7969C103.884 25.6114 102.389 27.008 100.488 27.9805H100.486C98.61 28.9297 96.4881 29.4004 94.1299 29.4004H86.8818V5.17578ZM102.178 17.2559C102.178 14.5831 101.413 12.5653 99.9326 11.1445L99.9287 11.1406C98.557 9.78782 96.6576 9.04821 94.1846 8.96094L93.6816 8.95215H91.1055V25.5918H93.6816V25.9922H90.7061V8.55176H93.6816C96.4763 8.55176 98.6526 9.32044 100.21 10.8564C101.788 12.3711 102.578 14.5041 102.578 17.2559L102.568 17.7686C102.476 20.296 101.69 22.2797 100.21 23.7197L99.9102 23.9951C98.3777 25.3263 96.3015 25.9922 93.6816 25.9922V25.5918C96.4031 25.5918 98.4677 24.8563 99.9307 23.4336C101.413 21.9913 102.178 19.9508 102.178 17.2559Z" fill="#333333"/>
<path d="M66.3516 5.57617V8.61621H73.5518V29H77.0078V8.61621H84.2402V5.57617H66.3516ZM84.6396 9.01562H77.4082V29.4004H73.1523V9.01562H65.9521V5.17578H84.6396V9.01562Z" fill="#333333"/>
<path d="M166.188 41.514V42.662H156.122V45.532C156.122 46.764 156.075 47.8093 155.982 48.668C155.898 49.5173 155.744 50.2873 155.52 50.978C155.305 51.6687 155.002 52.3687 154.61 53.078L153.434 52.392C153.826 51.7013 154.12 51.0293 154.316 50.376C154.521 49.7227 154.657 49.0413 154.722 48.332C154.787 47.6133 154.82 46.7173 154.82 45.644V41.514H160.014C159.874 41.1407 159.72 40.7813 159.552 40.436L160.938 40.156C161.087 40.4453 161.279 40.898 161.512 41.514H166.188ZM166.258 49.844V51.034H162.226V53.106H160.952V51.034H156.332V49.844H160.952V48.514H157.228V47.366C157.629 46.778 158.054 46.092 158.502 45.308H156.654V44.202H159.09C159.333 43.698 159.538 43.2453 159.706 42.844L160.966 43.11L160.462 44.202H165.712V45.308H159.888C159.44 46.12 159.025 46.8107 158.642 47.38H160.952V45.868H162.226V47.38H165.418V48.514H162.226V49.844H166.258Z" fill="#333333"/>
<path d="M143.288 46.862L142.014 47.38V51.398C142.014 51.8086 141.967 52.1213 141.874 52.336C141.781 52.5506 141.627 52.7046 141.412 52.798C141.197 52.8913 140.885 52.9473 140.474 52.966C140.194 52.9753 139.849 52.9566 139.438 52.91L139.228 51.706C139.536 51.762 139.839 51.79 140.138 51.79C140.39 51.79 140.558 51.734 140.642 51.622C140.735 51.51 140.782 51.3093 140.782 51.02V47.87L139.228 48.5L138.948 47.184C139.321 47.0626 139.933 46.848 140.782 46.54V44.062H139.242V42.816H140.782V40.366H142.014V42.816H143.204V44.062H142.014V46.05C142.546 45.826 142.905 45.6673 143.092 45.574L143.288 46.862ZM151.87 47.03H148.86V48.374H151.086V53.078H149.882V52.42H146.592V53.092H145.388V48.374H147.642V47.03H144.968C144.921 48.3553 144.791 49.4613 144.576 50.348C144.361 51.2346 144.007 52.1213 143.512 53.008L142.364 52.336C142.747 51.6173 143.036 50.9406 143.232 50.306C143.437 49.662 143.577 48.9386 143.652 48.136C143.727 47.3333 143.764 46.2973 143.764 45.028V40.968H151.352V44.636H148.86V45.952H151.87V47.03ZM150.106 43.516V42.102H144.996V43.516H150.106ZM144.996 45.952H147.642V44.636H144.996V45.182V45.952ZM146.592 51.342H149.882V49.466H146.592V51.342Z" fill="#333333"/>
<path d="M134.822 49.4241C135.438 50.3107 136.315 51.1881 137.454 52.0561L136.642 53.1621C135.587 52.3034 134.743 51.4307 134.108 50.5441C133.511 51.3561 132.68 52.2194 131.616 53.1341L130.79 52.0561C131.929 51.1507 132.792 50.2501 133.38 49.3541C132.811 48.2994 132.391 47.0861 132.12 45.7141C131.924 46.0594 131.807 46.2601 131.77 46.3161L130.93 45.2661C131.397 44.5381 131.798 43.7401 132.134 42.8721C132.479 41.9947 132.745 41.1267 132.932 40.2681L134.15 40.4921C133.973 41.2481 133.781 41.9107 133.576 42.4801H137.23V43.7821H136.292C136.171 45.0234 135.993 46.0921 135.76 46.9881C135.536 47.8841 135.223 48.6961 134.822 49.4241ZM124.504 46.3441C125.521 45.7654 126.361 45.0701 127.024 44.2581H124.854V43.1801H127.612V40.3521H128.76V43.1801H131.21V44.2581H128.76V44.3421L129.432 44.7901C130.375 45.4154 130.939 45.7981 131.126 45.9381L130.538 46.8201C130.155 46.5027 129.563 46.0594 128.76 45.4901V46.7921H127.612V45.0141C126.931 45.9194 126.095 46.6894 125.106 47.3241L124.504 46.3441ZM126.268 43.0121C125.895 42.4334 125.47 41.8314 124.994 41.2061L125.778 40.6181C126.105 41.0381 126.361 41.3787 126.548 41.6401C126.585 41.6867 126.777 41.9434 127.122 42.4101L126.268 43.0121ZM131.42 41.2061C130.935 41.9247 130.477 42.5501 130.048 43.0821L129.208 42.4661C129.693 41.8594 130.146 41.2434 130.566 40.6181L131.42 41.2061ZM132.932 44.1041C133.063 44.9347 133.217 45.6767 133.394 46.3301C133.571 46.9741 133.791 47.5714 134.052 48.1221C134.565 46.9927 134.915 45.5461 135.102 43.7821H133.072L132.932 44.1041ZM130.398 52.5181C129.875 52.1914 129.292 51.8694 128.648 51.5521C127.789 52.1307 126.571 52.6674 124.994 53.1621L124.462 52.0561C125.75 51.6734 126.744 51.3094 127.444 50.9641C126.949 50.7214 126.268 50.4087 125.4 50.0261C125.568 49.7647 125.801 49.3727 126.1 48.8501H124.63V47.8001H126.632C126.781 47.4921 126.907 47.1887 127.01 46.8901L128.214 47.1421L127.962 47.8001H130.916V48.7941C130.561 49.5967 130.137 50.2501 129.642 50.7541C130.165 51.0154 130.622 51.2581 131.014 51.4821L130.398 52.5181ZM128.55 50.2501C128.998 49.8674 129.348 49.4007 129.6 48.8501H127.472L127.052 49.6201L128.55 50.2501Z" fill="#333333"/>
<path d="M122.758 41.4861V42.7181H112.72V46.0221C112.72 47.2728 112.678 48.2761 112.594 49.0321C112.519 49.7881 112.379 50.4788 112.174 51.1041C111.978 51.7201 111.67 52.4061 111.25 53.1621L110.088 52.5461C110.471 51.8928 110.76 51.2768 110.956 50.6981C111.152 50.1101 111.283 49.4754 111.348 48.7941C111.413 48.1128 111.446 47.2354 111.446 46.1621V41.4861H116.584C116.425 41.0848 116.271 40.7254 116.122 40.4081L117.466 40.1001C117.681 40.5294 117.881 40.9914 118.068 41.4861H122.758ZM118.698 47.1281H122.758V48.2901L121.372 50.6561L120.21 50.1521L121.4 48.3181H118.558V51.3281C118.558 51.7948 118.497 52.1541 118.376 52.4061C118.264 52.6581 118.073 52.8354 117.802 52.9381C117.531 53.0501 117.149 53.1108 116.654 53.1201C116.057 53.1201 115.478 53.0921 114.918 53.0361L114.694 51.8181C115.245 51.8834 115.809 51.9161 116.388 51.9161C116.752 51.9161 116.99 51.8601 117.102 51.7481C117.214 51.6268 117.27 51.3794 117.27 51.0061V48.3181H113.21V47.1281H116.836C116.313 46.7548 115.665 46.3161 114.89 45.8121L115.674 45.0281C116.113 45.2988 116.78 45.7514 117.676 46.3861C118.656 45.8074 119.431 45.3174 120 44.9161H113.756V43.7681H121.988V44.9441C121.736 45.1121 121.255 45.4201 120.546 45.8681C119.837 46.3161 119.193 46.7174 118.614 47.0721L118.698 47.1281Z" fill="#333333"/>
<path d="M108.426 42.8861V44.1741H106.83V50.9641C106.83 51.4587 106.774 51.8367 106.662 52.0981C106.55 52.3687 106.363 52.5554 106.102 52.6581C105.85 52.7701 105.486 52.8354 105.01 52.8541C104.889 52.8634 104.707 52.8681 104.464 52.8681C103.969 52.8681 103.489 52.8401 103.022 52.7841L102.77 51.4681C103.517 51.5427 104.105 51.5801 104.534 51.5801C104.805 51.5801 105.005 51.5614 105.136 51.5241C105.267 51.4867 105.355 51.4214 105.402 51.3281C105.458 51.2347 105.486 51.0854 105.486 50.8801V44.1741H101.342V42.8861H105.486V40.2681H106.83V42.8861H108.426ZM100.558 51.9441H96.064V41.2621H100.558V51.9441ZM99.34 45.7281V42.6061H97.324V45.7281H99.34ZM103.526 49.1721C103.265 48.6681 102.924 48.0567 102.504 47.3381C102.093 46.6101 101.771 46.0734 101.538 45.7281L102.588 45.1261C102.84 45.5087 103.176 46.0594 103.596 46.7781C104.016 47.4967 104.338 48.0754 104.562 48.5141L103.526 49.1721ZM97.324 46.9741V50.6561H99.34V46.9741H97.324Z" fill="#333333"/>
<path d="M80.948 45.364C82.012 44.608 82.838 43.7493 83.426 42.788H81.48V41.668H83.832V40.198H85.064V41.668H87.122V42.788H85.064V42.928C85.932 43.4413 86.5573 43.8427 86.94 44.132L86.352 45.028C85.8573 44.6267 85.428 44.3047 85.064 44.062V46.246H83.832V43.936C83.2813 44.8413 82.5393 45.6907 81.606 46.484L80.948 45.364ZM91.238 42.788C91.602 43.264 92.0267 43.712 92.512 44.132C93.0067 44.5427 93.534 44.902 94.094 45.21L93.506 46.316C92.358 45.532 91.4433 44.6593 90.762 43.698V46.316H89.53V43.796C88.9887 44.692 88.2933 45.462 87.444 46.106L86.716 45.196C87.64 44.524 88.4147 43.7213 89.04 42.788H87.598V41.668H89.53V40.198H90.762V41.668H93.464V42.788H91.238ZM86.87 46.288C86.7207 46.4933 86.5573 46.6987 86.38 46.904H92.078V48.094C91.4247 48.906 90.6967 49.6107 89.894 50.208C89.1007 50.796 88.0973 51.342 86.884 51.846C85.6707 52.35 84.154 52.8213 82.334 53.26L81.578 52.056C83.9673 51.5333 85.8387 50.9453 87.192 50.292C88.5547 49.6293 89.6047 48.8827 90.342 48.052H85.26C85.0173 48.2667 84.9007 48.3693 84.91 48.36C85.638 48.7053 86.31 49.0507 86.926 49.396L86.24 50.474C85.5867 50.0353 84.8167 49.5873 83.93 49.13C83.482 49.4567 82.9313 49.8113 82.278 50.194L81.508 49.172C82.3573 48.696 83.1413 48.1687 83.86 47.59C84.5787 47.002 85.176 46.4187 85.652 45.84L86.87 46.288Z" fill="#333333"/>
<path d="M70.466 49.4099C71.306 48.8312 71.9593 48.2946 72.426 47.7999C72.902 47.2959 73.2473 46.7686 73.462 46.2179C73.686 45.6579 73.826 44.9906 73.882 44.2159H70.816V42.9279H73.924V40.2119H75.338L75.31 42.9279H78.964V44.2159H75.282C75.254 44.6826 75.1933 45.1726 75.1 45.6859L78.908 49.5779L77.928 50.5719C77.4053 49.9839 76.3087 48.8219 74.638 47.0859C74.358 47.7019 73.9567 48.2852 73.434 48.8359C72.9207 49.3772 72.23 49.9606 71.362 50.5859L70.466 49.4099ZM69.318 43.8239C69.1873 43.6652 68.562 42.9139 67.442 41.5699L67.134 41.2059L68.142 40.3519C68.3567 40.6039 68.45 40.7112 68.422 40.6739C69.0753 41.4112 69.7147 42.1439 70.34 42.8719L69.318 43.8239ZM73.42 51.4399C74.12 51.4772 74.904 51.4959 75.772 51.4959C76.948 51.4959 78.2173 51.4586 79.58 51.3839L79.328 52.6439C77.9933 52.7092 76.85 52.7419 75.898 52.7419C74.8527 52.7419 73.9567 52.7186 73.21 52.6719C72.4633 52.6252 71.8567 52.5459 71.39 52.4339C70.9233 52.3312 70.5033 52.1539 70.13 51.9019C69.766 51.6406 69.4207 51.2626 69.094 50.7679C68.9727 50.8892 68.7067 51.1879 68.296 51.6639C67.6053 52.4386 67.2273 52.8586 67.162 52.9239L66.49 51.5939L68.422 49.5639V46.1339H66.714V44.8739H69.682V49.5499C69.9433 50.0259 70.242 50.3946 70.578 50.6559C70.914 50.9172 71.3013 51.1039 71.74 51.2159C72.188 51.3279 72.748 51.4026 73.42 51.4399Z" fill="#333333"/>
<circle cx="28" cy="28" r="28" fill="#3363FF"/>
<path d="M26.5757 11.9133H36.4966L31.8462 19.9026H39.9165L39.9155 19.9045H47.5757C50.6516 19.9042 52.5744 23.2338 51.0366 25.8977L42.9634 39.8801C41.1791 42.9704 37.8814 44.8741 34.313 44.8743L22.8423 44.8752L17.4233 44.8743L31.8403 19.9045H24.2681C22.8406 19.9045 21.5219 20.6664 20.8081 21.9026L6.75635 46.2395C4.78033 43.9401 3.17145 41.3166 2.02002 38.4592L14.4634 16.9075C16.2481 13.8162 19.5472 11.9116 23.1167 11.9124L26.5757 11.9133ZM29.5347 37.8831H33.7368C35.1642 37.8829 36.4831 37.1212 37.1968 35.885L41.521 28.3958C41.9055 27.7298 41.4247 26.8967 40.6558 26.8967H35.8774L29.5347 37.8831Z" fill="white"/>
</svg>
