<svg width="16" height="16" viewBox="0 0 16 16" fill="none" xmlns="http://www.w3.org/2000/svg">
<path d="M7.45833 15.5H2C1.72386 15.5 1.5 15.2761 1.5 15V1C1.5 0.723858 1.72386 0.5 2 0.5H14C14.2761 0.5 14.5 0.723858 14.5 1V4" stroke="currentColor" stroke-linecap="round"/>
<path d="M4 3.5C4 3.22386 4.22386 3 4.5 3H11.5C11.7761 3 12 3.22386 12 3.5V3.5C12 3.77614 11.7761 4 11.5 4H4.5C4.22386 4 4 3.77614 4 3.5V3.5Z" fill="currentColor"/>
<rect x="4" y="6" width="2" height="1" rx="0.5" fill="currentColor"/>
<circle cx="11" cy="10" r="4.5" stroke="currentColor"/>
<path d="M11 7.5V10.5" stroke="currentColor" stroke-linecap="round"/>
<circle cx="11" cy="12.5" r="0.25" stroke="currentColor" stroke-width="0.5"/>
</svg>
