<svg width="16" height="16" viewBox="0 0 16 16" fill="none" xmlns="http://www.w3.org/2000/svg">
<path d="M9.49413 1.48296C9.5656 1.21623 9.83977 1.05794 10.1065 1.12941C10.3732 1.20088 10.5315 1.47505 10.4601 1.74178L7.0954 14.2988C7.02393 14.5656 6.74976 14.7238 6.48303 14.6524C6.2163 14.5809 6.05801 14.3067 6.12948 14.04L9.49413 1.48296Z" fill="#333333"/>
<path d="M4.64645 12.8388C4.84171 13.0341 5.15829 13.0341 5.35355 12.8388C5.54882 12.6436 5.54882 12.327 5.35355 12.1317L4.64645 12.8388ZM0.757359 8.24264L0.403806 7.88909C0.208544 8.08435 0.208544 8.40093 0.403806 8.59619L0.757359 8.24264ZM5.35355 4.35355C5.54882 4.15829 5.54882 3.84171 5.35355 3.64645C5.15829 3.45118 4.84171 3.45118 4.64645 3.64645L5.35355 4.35355ZM5.35355 12.1317L1.11091 7.88909L0.403806 8.59619L4.64645 12.8388L5.35355 12.1317ZM1.11091 8.59619L5.35355 4.35355L4.64645 3.64645L0.403806 7.88909L1.11091 8.59619Z" fill="#333333"/>
<path d="M11.3536 12.8388C11.1583 13.0341 10.8417 13.0341 10.6464 12.8388C10.4512 12.6436 10.4512 12.327 10.6464 12.1317L11.3536 12.8388ZM15.2426 8.24264L15.5962 7.88909C15.7915 8.08435 15.7915 8.40093 15.5962 8.59619L15.2426 8.24264ZM10.6464 4.35355C10.4512 4.15829 10.4512 3.84171 10.6464 3.64645C10.8417 3.45118 11.1583 3.45118 11.3536 3.64645L10.6464 4.35355ZM10.6464 12.1317L14.8891 7.88909L15.5962 8.59619L11.3536 12.8388L10.6464 12.1317ZM14.8891 8.59619L10.6464 4.35355L11.3536 3.64645L15.5962 7.88909L14.8891 8.59619Z" fill="#333333"/>
</svg>
