<svg width="100" height="100" viewBox="0 0 100 100" fill="none" xmlns="http://www.w3.org/2000/svg">
<rect x="40" y="36" width="51" height="51" rx="2" fill="url(#paint0_linear_301_458)" fill-opacity="0.2"/>
<rect x="24" y="24" width="52" height="15.4074" rx="2" fill="url(#paint1_linear_301_458)"/>
<rect x="24" y="42.2963" width="52" height="15.4074" rx="2" fill="url(#paint2_linear_301_458)"/>
<rect x="24" y="60.5926" width="52" height="15.4074" rx="2" fill="url(#paint3_linear_301_458)"/>
<rect x="33.6292" y="30.7408" width="4.81482" height="1.92593" rx="0.962963" fill="white"/>
<rect x="42.812" y="30.7408" width="23.1111" height="1.92593" rx="0.962963" fill="white"/>
<rect x="33.6292" y="49.0371" width="4.81482" height="1.92593" rx="0.962963" fill="white"/>
<rect x="42.812" y="49.0371" width="23.1111" height="1.92593" rx="0.962963" fill="white"/>
<rect x="33.6292" y="67.3331" width="4.81482" height="1.92593" rx="0.962963" fill="white"/>
<rect x="42.812" y="67.3331" width="23.1111" height="1.92593" rx="0.962963" fill="white"/>
<circle cx="22" cy="28" r="15" fill="url(#paint4_linear_301_458)" fill-opacity="0.2"/>
<defs>
<linearGradient id="paint0_linear_301_458" x1="58.2143" y1="36.1653" x2="100.486" y2="56.578" gradientUnits="userSpaceOnUse">
<stop stop-color="#3363FF"/>
<stop offset="1" stop-color="#149EFA" stop-opacity="0"/>
<stop offset="1" stop-color="#3363FF" stop-opacity="0"/>
</linearGradient>
<linearGradient id="paint1_linear_301_458" x1="42.5714" y1="24.0499" x2="57.1092" y2="47.7429" gradientUnits="userSpaceOnUse">
<stop stop-color="#3363FF"/>
<stop offset="1" stop-color="#A7CFFF"/>
</linearGradient>
<linearGradient id="paint2_linear_301_458" x1="42.5714" y1="42.3463" x2="57.1092" y2="66.0392" gradientUnits="userSpaceOnUse">
<stop stop-color="#3363FF"/>
<stop offset="1" stop-color="#A7CFFF"/>
</linearGradient>
<linearGradient id="paint3_linear_301_458" x1="42.5714" y1="60.6425" x2="57.1092" y2="84.3355" gradientUnits="userSpaceOnUse">
<stop stop-color="#3363FF"/>
<stop offset="1" stop-color="#A7CFFF"/>
</linearGradient>
<linearGradient id="paint4_linear_301_458" x1="17.7143" y1="13.0972" x2="42.5802" y2="25.1047" gradientUnits="userSpaceOnUse">
<stop stop-color="#3363FF"/>
<stop offset="1" stop-color="#149EFA" stop-opacity="0"/>
<stop offset="1" stop-color="#3363FF" stop-opacity="0"/>
</linearGradient>
</defs>
</svg>
