<svg width="16" height="16" viewBox="0 0 16 16" fill="none" xmlns="http://www.w3.org/2000/svg">
<g clip-path="url(#clip0_1561_13913)">
<path d="M14.5 8V1C14.5 0.723858 14.2761 0.5 14 0.5H2C1.72386 0.5 1.5 0.723858 1.5 1V15C1.5 15.2761 1.72386 15.5 2 15.5H7.45833" stroke="currentColor" stroke-linecap="round"/>
<path d="M10.0217 12.2906L9.81004 12.0789L9.52349 12.1655C8.15595 12.5789 6.61289 12.2447 5.5336 11.1654C4.50213 10.1339 4.15114 8.67905 4.48292 7.35818C4.51064 7.24779 4.57709 7.19614 4.67072 7.17973C4.77861 7.16082 4.92574 7.1946 5.0443 7.31316L6.0782 8.34706C6.66399 8.93285 7.61374 8.93285 8.19952 8.34706C8.78531 7.76128 8.78531 6.81153 8.19952 6.22574L7.07556 5.10178C6.96142 4.98764 6.92485 4.84491 6.94036 4.73658C6.95409 4.64075 7.00434 4.57167 7.10824 4.53749C8.49804 4.08024 10.0868 4.40484 11.1905 5.50851C12.3307 6.64875 12.6394 8.30688 12.1135 9.72804L12.0023 10.0285L12.2289 10.2551L14.5637 12.5899C15.1495 13.1757 15.1495 14.1255 14.5637 14.7113C13.9779 15.297 13.0282 15.297 12.4424 14.7113L10.0217 12.2906Z" stroke="currentColor"/>
</g>
<defs>
<clipPath id="clip0_1561_13913">
<rect width="16" height="16" fill="white"/>
</clipPath>
</defs>
</svg>
