<svg width="16" height="16" viewBox="0 0 16 16" fill="none" xmlns="http://www.w3.org/2000/svg">
<path d="M14.5 15.5H2.50024C1.94796 15.5 1.50024 15.0523 1.50024 14.5V14.5M1.50024 14.5V1C1.50024 0.723857 1.7241 0.5 2.00024 0.5H14C14.2761 0.5 14.5 0.723858 14.5 1V13C14.5 13.2761 14.2761 13.5 14 13.5H3.50024H2.50024C1.94796 13.5 1.50024 13.9477 1.50024 14.5V14.5Z" stroke="currentColor" stroke-linecap="round"/>
<path fill-rule="evenodd" clip-rule="evenodd" d="M8.07143 3C8.34757 3 8.57143 3.22386 8.57143 3.5V4.20001C8.38679 4.16253 8.19569 4.14286 8 4.14286C7.85434 4.14286 7.71123 4.15376 7.57143 4.17479V3.5C7.57143 3.22386 7.79529 3 8.07143 3ZM6.30551 4.69934L5.82819 4.22201C5.63293 4.02675 5.31635 4.02675 5.12108 4.22201C4.92582 4.41728 4.92582 4.73386 5.12108 4.92912L5.61626 5.4243C5.80185 5.1441 6.03552 4.89852 6.30551 4.69934ZM5.20001 6.42857H4.5C4.22386 6.42857 4 6.65243 4 6.92857C4 7.20471 4.22386 7.42857 4.5 7.42857H5.17479C5.15376 7.28877 5.14286 7.14566 5.14286 7C5.14286 6.80431 5.16253 6.61321 5.20001 6.42857ZM5.69934 8.69449L5.22201 9.17181C5.02675 9.36707 5.02675 9.68365 5.22201 9.87891C5.41728 10.0742 5.73386 10.0742 5.92912 9.87891L6.4243 9.38374C6.1441 9.19815 5.89852 8.96448 5.69934 8.69449ZM7.57143 9.82521V10.5C7.57143 10.7761 7.79529 11 8.07143 11C8.34757 11 8.57143 10.7761 8.57143 10.5V9.79999C8.38679 9.83747 8.19569 9.85714 8 9.85714C7.85434 9.85714 7.71123 9.84624 7.57143 9.82521ZM9.5757 9.38374L10.0708 9.87887C10.2661 10.0741 10.5827 10.0741 10.7779 9.87887C10.9732 9.68361 10.9732 9.36702 10.7779 9.17176L10.3007 8.69449C10.1015 8.96448 9.8559 9.19815 9.5757 9.38374ZM10.8252 7.42857H11.5C11.7761 7.42857 12 7.20471 12 6.92857C12 6.65243 11.7761 6.42857 11.5 6.42857H10.8C10.8375 6.61321 10.8571 6.80431 10.8571 7C10.8571 7.14566 10.8462 7.28877 10.8252 7.42857ZM10.3837 5.4243L10.8789 4.92917C11.0741 4.73391 11.0741 4.41732 10.8789 4.22206C10.6836 4.0268 10.367 4.0268 10.1718 4.22206L9.69449 4.69934C9.96448 4.89852 10.1981 5.1441 10.3837 5.4243Z" fill="currentColor"/>
<circle cx="7.99997" cy="6.99997" r="2.35714" stroke="currentColor"/>
</svg>
