<svg width="16" height="16" viewBox="0 0 16 16" fill="none" xmlns="http://www.w3.org/2000/svg">
<path fill-rule="evenodd" clip-rule="evenodd" d="M12.8656 7.29678L13.975 8.89834L13.1531 9.46709L12.0375 7.85459C11.85 7.96553 11.6578 8.06865 11.4609 8.16396C11.0656 8.35615 10.6609 8.51553 10.2484 8.63896L10.65 10.4562L9.67187 10.6718L9.27187 8.8624C8.85781 8.92959 8.43749 8.96396 8.01249 8.96396C7.58749 8.96396 7.16718 8.92959 6.75312 8.8624L6.35312 10.6718L5.37656 10.4562L5.77812 8.63896C5.35937 8.51396 4.94999 8.35303 4.54843 8.15615C4.35781 8.0624 4.17187 7.9624 3.98906 7.85459L2.87343 9.46709L2.05156 8.89834L3.16093 7.29678C2.66093 6.91553 2.19687 6.47334 1.77499 5.97646L2.53749 5.32959C3.23906 6.15615 4.06406 6.80459 4.99062 7.25928C5.94531 7.72803 6.96249 7.96396 8.01406 7.96396C9.05937 7.96396 10.0719 7.72959 11.0234 7.26553C11.9469 6.81553 12.7703 6.17334 13.4703 5.35459L14.2297 6.00459C13.8109 6.49053 13.3562 6.92178 12.8656 7.29678Z" fill="#C0C4CC"/>
</svg>
