<svg width="28" height="28" viewBox="0 0 28 28" fill="none" xmlns="http://www.w3.org/2000/svg">
<path d="M11.1877 10.1682V8.375C11.1877 7.89175 11.5795 7.5 12.0627 7.5H18.625C19.1082 7.5 19.5 7.89175 19.5 8.375V16.2056C19.5 16.6889 19.1082 17.0806 18.625 17.0806H16.4375" stroke="#999999"/>
<path d="M16.125 20.125C16.125 20.3321 15.9571 20.5 15.75 20.5L12.331 20.5L11.0708 20.5C10.9719 20.5 10.877 20.461 10.8068 20.3913L8.48602 18.0912C8.41497 18.0208 8.375 17.9249 8.375 17.8249L8.375 15.137L8.375 10.9376C8.375 10.7305 8.54289 10.5626 8.75 10.5626L15.75 10.5626C15.9571 10.5626 16.125 10.7305 16.125 10.9376L16.125 20.125Z" stroke="#999999"/>
<path d="M11.5 20.5L11.5 18.2153C11.5 17.9737 11.3041 17.7778 11.0625 17.7778L8.77778 17.7778" stroke="#999999"/>
</svg>
