<svg width="16" height="16" viewBox="0 0 16 16" fill="none" xmlns="http://www.w3.org/2000/svg">
<path d="M8 1L8.15555 1.00076C8.7132 1.00498 9.27028 1.03655 9.82467 1.09535L10.0899 1.12563L10.3707 1.16346L10.6464 1.2062L10.7844 1.22967L11.0559 1.28001C13.3383 1.72913 14.9374 2.68984 14.998 3.95249L15 4.02703V11.973C15 13.2723 13.383 14.2622 11.0559 14.72L10.7845 14.7703L10.6464 14.7938L10.3707 14.8362L10.0899 14.874C9.42877 14.9565 8.72683 15 8 15C7.27317 15 6.57122 14.9565 5.9101 14.874L5.62933 14.8362L5.3536 14.7938C2.8546 14.3825 1.06493 13.384 1.00193 12.0464L1 11.973V4.02702L1.00193 3.95249C1.0626 2.68983 2.66172 1.72913 4.9441 1.28001L5.21555 1.22967L5.3536 1.20622L5.62933 1.16383L5.9101 1.126C6.50065 1.05322 7.09486 1.01204 7.69005 1.00264L8 1ZM10.6464 10.6316L10.3707 10.674L10.0899 10.7118C9.42877 10.7943 8.72683 10.8378 8 10.8378C7.27317 10.8378 6.57122 10.7943 5.9101 10.7118L5.62933 10.674L5.3536 10.6316C4.05043 10.4171 2.93977 10.0429 2.16667 9.54417V11.973C2.16667 12.3445 2.60727 12.7316 3.35277 13.0582L3.5305 13.1323C3.80467 13.2421 4.11383 13.3438 4.45293 13.4343L4.68355 13.4929C4.92846 13.5521 5.17527 13.6036 5.4236 13.6473L5.68572 13.6908L5.95443 13.7298C6.13973 13.7549 6.32553 13.7763 6.51172 13.7941L6.7991 13.8191L7.09193 13.8388L7.39022 13.8531C7.79657 13.8688 8.20341 13.8688 8.60977 13.8531L8.90805 13.8388L9.20088 13.8191L9.48867 13.7941C9.67472 13.7763 9.86038 13.7548 10.0455 13.7298L10.3143 13.6908L10.5764 13.6473C10.8346 13.6019 11.0819 13.5501 11.3164 13.4929L11.547 13.4343C11.8862 13.3435 12.1953 13.2421 12.4695 13.1323L12.6472 13.0582C13.3639 12.7441 13.7991 12.3744 13.8314 12.0157L13.8333 11.973V9.54379C13.0606 10.0429 11.9499 10.4171 10.6464 10.6316ZM13.8333 5.76C13.0987 6.23411 12.06 6.59546 10.84 6.81454L10.6456 6.84785L10.3703 6.89022L10.0895 6.92805C9.42838 7.01054 8.72643 7.05405 7.9996 7.05405C7.3766 7.05405 6.77188 7.02227 6.19517 6.96097L5.90972 6.92807L5.62893 6.89024L5.35322 6.84785C4.05005 6.63332 2.93938 6.2591 2.16627 5.7604V7.81081C2.16627 8.18239 2.60688 8.56946 3.35238 8.896L3.53012 8.97016C3.80428 9.0799 4.11345 9.18168 4.45255 9.27211L4.68315 9.33076C4.92806 9.38996 5.17488 9.44145 5.42322 9.48514L5.68533 9.52865L5.95405 9.56763C6.13934 9.5927 6.32514 9.61415 6.51132 9.63194L6.79872 9.65692L7.09155 9.6766L7.38983 9.69097C7.79619 9.70662 8.20303 9.70662 8.60938 9.69097L8.90767 9.6766L9.2005 9.65692L9.48827 9.63194C9.67432 9.61412 9.85999 9.59268 10.0452 9.56763L10.3139 9.52865L10.576 9.48514C10.8342 9.43973 11.0815 9.38789 11.316 9.33076L11.5466 9.27211C11.8858 9.18129 12.1949 9.0799 12.4691 8.97016L12.6468 8.896C13.3635 8.58194 13.7987 8.21226 13.831 7.85358L13.8329 7.81081V5.76H13.8333ZM8 2.13514L7.846 2.1359L7.61655 2.13968L7.39022 2.14686L7.09193 2.16124L6.7991 2.18093L6.51133 2.20589C6.38493 2.218 6.2605 2.23162 6.1376 2.24675L5.95483 2.27022L5.68572 2.30918L5.4236 2.35271C5.2354 2.38585 5.04804 2.42332 4.86167 2.46509L4.68355 2.5067L4.45295 2.56572C4.1706 2.64141 3.9085 2.72464 3.6705 2.81357L3.5305 2.86767L3.35277 2.94184C2.60727 3.26837 2.16667 3.65545 2.16667 4.02703C2.16667 4.3827 2.56993 4.752 3.2575 5.06946L3.35277 5.11221L3.5305 5.18638C3.75877 5.27795 4.01155 5.36383 4.2861 5.44216L4.45333 5.48833L4.68355 5.54698C4.85933 5.58973 5.04248 5.62946 5.23188 5.66617L5.4236 5.70136L5.68572 5.74487L5.95443 5.78383C6.07538 5.80049 6.19827 5.81525 6.3231 5.82924L6.51172 5.84816L6.7991 5.87314L7.09193 5.89282L7.39022 5.90719C7.72955 5.92025 8.06924 5.9224 8.40872 5.91363L8.60978 5.90719L8.90805 5.89282L9.20088 5.87314L9.48867 5.84816C9.61505 5.83605 9.7395 5.82245 9.86238 5.8073L10.0452 5.78383L10.3143 5.74487L10.5764 5.70136C10.7646 5.66822 10.952 5.63075 11.1383 5.58898L11.3164 5.54735L11.547 5.48833C11.8294 5.41264 12.0915 5.32941 12.3295 5.24049L12.4695 5.18638L12.6472 5.11222C13.3927 4.78568 13.8333 4.3986 13.8333 4.02703C13.8333 3.67135 13.43 3.30206 12.7425 2.98459L12.6472 2.94184L12.4695 2.86767C12.2223 2.76979 11.9701 2.68442 11.7139 2.61189L11.5467 2.56572L11.3164 2.50709C11.1347 2.46297 10.9519 2.42323 10.7681 2.3879L10.5764 2.35271L10.3143 2.30918L10.0455 2.27022C9.92287 2.25349 9.79997 2.23835 9.67688 2.22481L9.48827 2.20589L9.20088 2.18091L8.90805 2.16124L8.60977 2.14688C8.47638 2.14156 8.34143 2.13817 8.20533 2.13627L8 2.13514Z" fill="#45BD09"/>
</svg>
