<svg width="14" height="14" viewBox="0 0 14 14" fill="none" xmlns="http://www.w3.org/2000/svg">
<path d="M2.66992 4.50005C4.05063 2.10859 7.10859 1.28921 9.50005 2.66992C11.8915 4.05063 12.7109 7.10859 11.3302 9.50005C9.94946 11.8915 6.89151 12.7109 4.50005 11.3302C3.28874 10.6308 2.48076 9.50117 2.15772 8.24578" stroke="#0DC56E" stroke-linecap="round"/>
<path d="M2.52475 4.614L2.5247 1.7454" stroke="#0DC56E" stroke-linecap="round" stroke-linejoin="round"/>
<path d="M7.5 4.5C7.5 4.22386 7.27614 4 7 4C6.72386 4 6.5 4.22386 6.5 4.5H7.5ZM7 7H6.5C6.5 7.13261 6.55268 7.25979 6.64645 7.35355L7 7ZM8.14645 8.85355C8.34171 9.04882 8.65829 9.04882 8.85355 8.85355C9.04882 8.65829 9.04882 8.34171 8.85355 8.14645L8.14645 8.85355ZM6.5 4.5V7H7.5V4.5H6.5ZM6.64645 7.35355L8.14645 8.85355L8.85355 8.14645L7.35355 6.64645L6.64645 7.35355Z" fill="#0DC56E"/>
</svg>
