<svg width="16" height="16" viewBox="0 0 16 16" fill="none" xmlns="http://www.w3.org/2000/svg">
<path d="M1.5 6.49979V9.49979C1.5 10.0521 1.94772 10.4998 2.5 10.4998H4.63008C4.86879 10.4998 5.09962 10.5852 5.28087 10.7405L7.6746 12.7923C7.99894 13.0703 8.5 12.8399 8.5 12.4127V3.5869C8.5 3.15972 7.99894 2.92927 7.6746 3.20727L5.28087 5.25905C5.09962 5.4144 4.86879 5.49979 4.63008 5.49979H2.5C1.94772 5.49979 1.5 5.94751 1.5 6.49979Z" stroke="#666666"/>
<path d="M11 6C11.4749 6.53073 11.7637 7.23153 11.7637 7.99978C11.7637 8.76803 11.4749 9.46883 11 9.99956" stroke="#666666" stroke-linecap="square"/>
<path d="M13.3008 5C14.0133 5.79613 14.4466 6.84747 14.4466 8C14.4466 9.15253 14.0133 10.2039 13.3008 11" stroke="#666666" stroke-linecap="square"/>
</svg>
