<svg width="16" height="16" viewBox="0 0 16 16" fill="none" xmlns="http://www.w3.org/2000/svg">
<path d="M14.7505 13.2723C14.687 13.403 14.5395 13.5 14.353 13.5H1.64705C1.46054 13.5 1.31299 13.403 1.24948 13.2723C0.769473 12.284 0.5 11.1742 0.5 10C0.5 5.85786 3.85786 2.5 8 2.5C12.1421 2.5 15.5 5.85786 15.5 10C15.5 11.1742 15.2305 12.284 14.7505 13.2723Z" stroke="currentColor"/>
<path d="M6 8L8 10" stroke="currentColor" stroke-linecap="round"/>
<path d="M3.10002 11C3.03443 10.6769 3 10.3425 3 10C3 7.23858 5.23858 5 8 5C10.7614 5 13 7.23858 13 10C13 10.3425 12.9656 10.6769 12.9 11" stroke="currentColor" stroke-linecap="round"/>
</svg>
