<svg width="17" height="16" viewBox="0 0 17 16" fill="none" xmlns="http://www.w3.org/2000/svg">
<path d="M2.9212 3.66609L4.75417 7.38203H2.57042C2.54898 7.58732 2.53829 7.79359 2.53839 8C2.53839 8.79359 2.69355 9.56281 2.99964 10.2864C3.29542 10.9859 3.71917 11.6144 4.25917 12.1542C4.79902 12.6941 5.42745 13.118 6.12699 13.4137C6.85042 13.7198 7.6198 13.875 8.41339 13.875C9.20698 13.875 9.97636 13.7198 10.6998 13.4137C11.3312 13.1467 11.9046 12.7755 12.4075 12.3086L12.9507 13.2494L12.9684 13.3153C11.744 14.3655 10.1529 15 8.41339 15C4.54745 15 1.41339 11.8659 1.41339 8C1.41339 7.79172 1.42245 7.58563 1.44027 7.38203C1.49964 6.70359 1.65589 6.05281 1.8948 5.44375C2.06305 5.01523 2.40198 4.42492 2.91164 3.67281C2.91195 3.67234 2.91241 3.67198 2.91294 3.67178C2.91347 3.67158 2.91405 3.67156 2.9146 3.67172C2.91514 3.67188 2.91562 3.6722 2.91597 3.67265C2.91631 3.6731 2.9165 3.67365 2.91652 3.67422L2.9212 3.66609ZM8.41339 1C12.2793 1 15.4134 4.13391 15.4134 8C15.4134 8.22125 15.4031 8.44014 15.3829 8.65609C15.3168 9.36875 15.1437 10.0503 14.8798 10.6847C14.6479 11.2427 14.3444 11.7682 13.9771 12.248L13.9056 12.372L13.895 12.3536C13.8901 12.3598 13.8851 12.3659 13.8803 12.372L13.8584 12.2902L12.0726 8.65609H14.2525C14.2765 8.43822 14.2885 8.21919 14.2884 8C14.2884 7.20641 14.1332 6.43703 13.8271 5.71344C13.5314 5.01406 13.1076 4.38563 12.5676 3.84578C12.0278 3.30578 11.3993 2.88203 10.6998 2.58625C9.97636 2.28016 9.20698 2.125 8.41339 2.125C7.6198 2.125 6.85042 2.28016 6.12699 2.58625C5.48323 2.85844 4.8998 3.23891 4.39011 3.71875L3.83933 2.76469L3.82542 2.71297C5.05402 1.64594 6.65823 1 8.41339 1Z" fill="#3363FF">
  <animateTransform attributeType="xml"
                    attributeName="transform"
                    type="rotate"
                    from="0 8.5 8"
                    to="360 8.5 8"
                    dur="2s"
                    repeatCount="indefinite"/>
</path>
</svg>
