<svg width="16" height="16" viewBox="0 0 16 16" fill="none" xmlns="http://www.w3.org/2000/svg">
<g clip-path="url(#clip0_4508_107547)">
<circle cx="8" cy="8" r="6.5" fill="white" stroke="#FAAD14"/>
<path d="M8 1C6.61553 1 5.26215 1.41054 4.11101 2.17971C2.95987 2.94888 2.06266 4.04213 1.53285 5.32122C1.00303 6.6003 0.86441 8.00776 1.13451 9.36563C1.4046 10.7235 2.07129 11.9708 3.05026 12.9497C4.02922 13.9287 5.2765 14.5954 6.63437 14.8655C7.99224 15.1356 9.3997 14.997 10.6788 14.4672C11.9579 13.9373 13.0511 13.0401 13.8203 11.889C14.5895 10.7378 15 9.38447 15 8C15 6.14348 14.2625 4.36301 12.9497 3.05025C11.637 1.7375 9.85652 1 8 1ZM9.3125 6.362L7.9545 11.073C7.89746 11.2444 7.85989 11.4217 7.8425 11.6015C7.84398 11.653 7.8653 11.7019 7.902 11.738C7.91719 11.757 7.93633 11.7725 7.95808 11.7833C7.97983 11.7942 8.00369 11.8002 8.028 11.801C8.11249 11.7954 8.19207 11.7593 8.252 11.6995C8.53259 11.4352 8.77417 11.1323 8.9695 10.8L9.1935 10.933C8.525 12.0985 7.818 12.683 7.0655 12.683C6.93842 12.6905 6.81111 12.6727 6.69096 12.6306C6.5708 12.5886 6.46018 12.5231 6.3655 12.438C6.28824 12.3611 6.22733 12.2694 6.18643 12.1683C6.14553 12.0673 6.12548 11.959 6.1275 11.85C6.13652 11.6316 6.1778 11.4158 6.25 11.2095L7.1705 8.0595C7.24492 7.8329 7.28962 7.5976 7.3035 7.3595C7.30257 7.3099 7.29044 7.26116 7.26802 7.21692C7.24559 7.17267 7.21345 7.13407 7.174 7.104C7.07665 7.02201 6.95087 6.98176 6.824 6.992H6.6L6.684 6.7295L8.931 6.3795L9.3125 6.362ZM9.5925 4.962C9.50158 5.05484 9.3925 5.12794 9.27205 5.17672C9.15161 5.2255 9.0224 5.24891 8.8925 5.2455C8.76519 5.24504 8.6392 5.21951 8.52176 5.17036C8.40431 5.12122 8.29769 5.04942 8.20798 4.95907C8.11828 4.86871 8.04726 4.76158 7.99896 4.64378C7.95066 4.52598 7.92604 4.39982 7.9265 4.2725C7.92242 4.14283 7.94519 4.01371 7.99338 3.89325C8.04156 3.77279 8.11412 3.66359 8.2065 3.5725C8.29677 3.47879 8.40574 3.40512 8.52634 3.35628C8.64694 3.30743 8.77647 3.28451 8.9065 3.289C9.03643 3.28538 9.1657 3.30869 9.28617 3.35749C9.40665 3.40628 9.51571 3.47949 9.6065 3.5725C9.69821 3.66409 9.77032 3.77338 9.81846 3.89372C9.8666 4.01406 9.88975 4.14293 9.8865 4.2725C9.89013 4.40243 9.86681 4.5317 9.81802 4.65217C9.76922 4.77264 9.69602 4.88171 9.603 4.9725L9.5925 4.962Z" fill="#3363FF"/>
</g>
<defs>
<clipPath id="clip0_4508_107547">
<rect width="16" height="16" fill="white"/>
</clipPath>
</defs>
</svg>
