<svg width="15" height="14" viewBox="0 0 15 14" fill="none" xmlns="http://www.w3.org/2000/svg">
<path fill-rule="evenodd" clip-rule="evenodd" d="M7.8457 0C9.82487 0.0520833 11.4733 0.736979 12.791 2.05469C14.1087 3.3724 14.7936 5.02083 14.8457 7C14.7936 8.97917 14.1087 10.6276 12.791 11.9453C11.4733 13.263 9.82487 13.9479 7.8457 14C5.86654 13.9479 4.2181 13.263 2.90039 11.9453C1.58268 10.6276 0.897786 8.97917 0.845703 7C0.897786 5.02083 1.58268 3.3724 2.90039 2.05469C4.2181 0.736979 5.86654 0.0520833 7.8457 0ZM8.89265 4.29688C9.16348 4.29688 9.38744 4.21615 9.56453 4.05469C9.74161 3.89323 9.83015 3.67708 9.83015 3.40625C9.83015 3.13542 9.74161 2.91927 9.56453 2.75781C9.38744 2.59635 9.16609 2.51562 8.90046 2.51562C8.63484 2.51562 8.41348 2.59635 8.2364 2.75781C8.05932 2.91927 7.97078 3.13542 7.97078 3.40625C7.97078 3.67708 8.05932 3.89323 8.2364 4.05469C8.41348 4.21615 8.63223 4.29688 8.89265 4.29688ZM9.08022 9.92187C9.08022 9.85937 9.08543 9.77604 9.09585 9.67187C9.10626 9.56771 9.10626 9.46875 9.09585 9.375L8.26772 10.3281C8.18439 10.4219 8.09845 10.4948 8.00991 10.5469C7.92137 10.599 7.84585 10.6146 7.78335 10.5937C7.6896 10.5521 7.64793 10.4792 7.65835 10.375L9.03335 6.04687C9.08543 5.75521 9.03856 5.50521 8.89272 5.29687C8.74689 5.08854 8.51251 4.96354 8.1896 4.92188C7.82501 4.93229 7.42658 5.08594 6.99429 5.38281C6.56199 5.67969 6.18439 6.05729 5.86147 6.51562V6.75C5.85106 6.85417 5.85106 6.95312 5.86147 7.04687L6.6896 6.09375C6.77293 6 6.85887 5.92708 6.94741 5.875C7.03595 5.82292 7.10626 5.80729 7.15835 5.82812C7.26251 5.88021 7.29897 5.96354 7.26772 6.07812L5.90835 10.3906C5.83543 10.651 5.87189 10.8828 6.01772 11.0859C6.16356 11.2891 6.41876 11.4271 6.78335 11.5C7.30418 11.4896 7.74168 11.3385 8.09585 11.0469C8.45001 10.7552 8.77814 10.3802 9.08022 9.92187Z" fill="#606266"/>
</svg>
