<svg width="18" height="18" viewBox="0 0 18 18" fill="none" xmlns="http://www.w3.org/2000/svg">
<path d="M11.9008 5.95391L8.26056 11.0512C8.21869 11.1097 8.19301 11.1783 8.18608 11.25C8.1792 11.3217 8.19123 11.3939 8.22112 11.4595L10.75 17.001C10.9774 17.5161 11.7192 17.4819 11.8973 16.9477L17.1175 1.28707C17.1537 1.17861 17.159 1.06231 17.1327 0.951007C17.1065 0.839759 17.0498 0.737977 16.969 0.657151C16.8882 0.576325 16.7864 0.519656 16.6751 0.493428C16.5639 0.467199 16.4475 0.472442 16.3391 0.508665L0.678498 5.72886C0.144297 5.90692 0.110656 6.64935 0.625136 6.87614L6.16725 9.40446C6.2328 9.4345 6.30513 9.44673 6.37692 9.4399C6.44871 9.43308 6.51744 9.40746 6.57616 9.3656L11.6728 5.7248C11.7044 5.7026 11.7428 5.69228 11.7813 5.69566C11.8197 5.69899 11.8558 5.71578 11.8831 5.74307C11.9104 5.77037 11.9272 5.80642 11.9305 5.84489C11.9339 5.88331 11.923 5.92229 11.9008 5.95391Z" fill="white"/>
</svg>
