<svg width="14" height="14" viewBox="0 0 14 14" fill="none" xmlns="http://www.w3.org/2000/svg">
<g clip-path="url(#clip0_51_3649)">
<circle cx="7" cy="7" r="5.5" fill="#52C41A" />
<path d="M6.20972 8.04492L4.88372 6.71892C4.77658 6.62064 4.65385 6.57149 4.51557 6.57149C4.3773 6.57149 4.25671 6.62277 4.15387 6.72534C4.05099 6.82793 3.99972 6.94622 4 7.0802C4.00029 7.2142 4.04943 7.33479 4.14743 7.44193L5.84842 9.14292C5.94673 9.24121 6.06728 9.29035 6.21015 9.29035C6.35301 9.29035 6.47357 9.24121 6.57187 9.14292L10.0943 5.6205C10.2283 5.4865 10.2707 5.32349 10.2216 5.13149C10.1725 4.93949 10.0519 4.81892 9.85985 4.76978C9.66787 4.72064 9.50486 4.76307 9.37086 4.89706L6.20972 8.04492Z" fill="white"/>
</g>
<defs>
<clipPath id="clip0_51_3649">
<rect width="14" height="14" fill="white"/>
</clipPath>
</defs>
</svg>
