<svg width="16" height="16" viewBox="0 0 16 16" fill="none" xmlns="http://www.w3.org/2000/svg">
<g clip-path="url(#clip0_944_13379)">
<path d="M2 3C2 3.26264 2.15519 3.52272 2.45672 3.76537C2.75825 4.00802 3.20021 4.2285 3.75736 4.41421C4.31451 4.59993 4.97595 4.74725 5.7039 4.84776C6.43185 4.94827 7.21207 5 8 5C8.78793 5 9.56815 4.94827 10.2961 4.84776C11.0241 4.74725 11.6855 4.59993 12.2426 4.41421C12.7998 4.2285 13.2417 4.00802 13.5433 3.76537C13.8448 3.52272 14 3.26264 14 3C14 2.73736 13.8448 2.47728 13.5433 2.23463C13.2417 1.99198 12.7998 1.7715 12.2426 1.58579C11.6855 1.40007 11.0241 1.25275 10.2961 1.15224C9.56815 1.05173 8.78793 1 8 1C7.21207 1 6.43185 1.05173 5.7039 1.15224C4.97595 1.25275 4.31451 1.40007 3.75736 1.58579C3.20021 1.7715 2.75825 1.99198 2.45672 2.23463C2.15519 2.47728 2 2.73736 2 3Z" fill="#E0EBFE"/>
<rect width="16" height="16" rx="1" fill="#3363FF"/>
<path d="M2.46314 5.4432L7.53233 7.89129C7.66436 7.95409 7.84123 7.98741 8.0149 7.98741C8.18922 7.98741 8.36546 7.95409 8.49748 7.89129L13.5667 5.4432C13.8339 5.31439 13.8339 5.10418 13.5667 4.97538L8.49811 2.52793C8.34574 2.46179 8.18099 2.42902 8.01492 2.4318C7.84188 2.4318 7.66436 2.46447 7.53299 2.52793L2.46314 4.97602C2.19653 5.10418 2.19653 5.31439 2.46314 5.4432Z" fill="white"/>
<path d="M13.5672 7.74919L12.5181 7.2429C12.3957 7.18266 12.3624 7.18587 12.2336 7.24547C12.1054 7.30571 8.49418 9.04949 8.49418 9.04949C8.3596 9.1123 8.18592 9.14562 8.01225 9.14562C7.83859 9.14562 7.6617 9.1123 7.52969 9.04949C7.52969 9.04949 4.01521 7.35378 3.85051 7.27303C3.67106 7.18587 3.6198 7.18587 3.45765 7.26405L2.45728 7.74598C2.19067 7.8748 2.19067 8.08499 2.45728 8.21381L7.52647 10.6619C7.6585 10.7247 7.83537 10.7574 8.00904 10.7574C8.18272 10.7574 8.3596 10.7247 8.49161 10.6613L13.5608 8.21317C13.8338 8.08756 13.8338 7.878 13.5672 7.74919Z" fill="white"/>
<path d="M13.5671 10.5483L12.518 10.042C12.3956 9.98172 12.3623 9.98429 12.2335 10.0445C12.1053 10.1048 8.49726 11.8518 8.49726 11.8518C8.36267 11.9139 8.18901 11.9472 8.01469 11.9472C7.84165 11.9472 7.66414 11.9139 7.53276 11.8511C7.53276 11.8511 4.01765 10.1554 3.85294 10.0747C3.67351 9.98749 3.62223 9.98749 3.46074 10.0657L2.45971 10.5483C2.19312 10.6764 2.19312 10.8866 2.45971 11.0154L7.52956 13.4635C7.66158 13.5289 7.83846 13.5596 8.01213 13.5596C8.18517 13.5596 8.36267 13.5263 8.49406 13.4635L13.5639 11.0154C13.8331 10.8866 13.8331 10.6771 13.5671 10.5476L13.5671 10.5483Z" fill="white"/>
</g>
<defs>
<clipPath id="clip0_944_13379">
<rect width="16" height="16" fill="white"/>
</clipPath>
</defs>
</svg>
