<svg width="16" height="16" viewBox="0 0 16 16" fill="none" xmlns="http://www.w3.org/2000/svg">
<path d="M7.99967 14.6673C9.84061 14.6673 11.5073 13.9211 12.7137 12.7147C13.9201 11.5083 14.6663 9.84158 14.6663 8.00065C14.6663 6.15972 13.9201 4.49305 12.7137 3.2866C11.5073 2.08018 9.84061 1.33398 7.99967 1.33398C6.15874 1.33398 4.49207 2.08018 3.28563 3.2866C2.0792 4.49305 1.33301 6.15972 1.33301 8.00065C1.33301 9.84158 2.0792 11.5083 3.28563 12.7147C4.49207 13.9211 6.15874 14.6673 7.99967 14.6673Z" fill="#FAAD14"/>
<path d="M8 4.5V9.02752V4.5Z" fill="white"/>
<path d="M8 4.5V9.02752" stroke="white" stroke-width="1.12" stroke-linecap="square" stroke-linejoin="round"/>
<rect x="7.34961" y="11" width="1.3" height="1.3" rx="0.65" fill="white"/>
</svg>
