<svg width="64" height="64" viewBox="0 0 64 64" fill="none" xmlns="http://www.w3.org/2000/svg">
<path fill-rule="evenodd" clip-rule="evenodd" d="M32.0002 9.2002C19.4085 9.2002 9.2002 19.4081 9.2002 32.0002C9.2002 44.5929 19.4084 54.8002 32.0002 54.8002C44.593 54.8002 54.8002 44.593 54.8002 32.0002C54.8002 19.4079 44.5928 9.2002 32.0002 9.2002ZM3.2002 32.0002C3.2002 16.0943 16.0949 3.2002 32.0002 3.2002C47.9066 3.2002 60.8002 16.0943 60.8002 32.0002C60.8002 47.9068 47.9067 60.8002 32.0002 60.8002C16.0949 60.8002 3.2002 47.9068 3.2002 32.0002Z" fill="#5a5e66"/>
<path d="M22.4004 26.4832C22.4601 24.3328 22.714 22.7051 23.162 21.6C23.61 20.4651 24.3268 19.4645 25.3124 18.5984C26.298 17.7024 27.3881 17.0453 28.5828 16.6272C29.8073 16.2091 31.0916 16 32.4356 16C35.1535 16 37.4084 16.8064 39.2004 18.4192C41.0223 20.0021 41.9332 22.1227 41.9332 24.7808C41.9332 25.9755 41.6943 27.0656 41.2164 28.0512C40.7684 29.0069 39.7828 30.2165 38.2596 31.68C36.7663 33.1136 35.7657 34.144 35.258 34.7712C34.7801 35.3685 34.4068 36.1003 34.138 36.9664C33.8991 37.8027 33.7945 38.9376 33.8244 40.3712H29.882C29.882 38.6987 30.0164 37.3696 30.2852 36.384C30.554 35.3685 30.9572 34.4875 31.4948 33.7408C32.0324 32.9941 33.0031 31.904 34.4068 30.4704C35.8105 29.0069 36.7065 27.9467 37.0948 27.2896C37.5129 26.6325 37.722 25.6619 37.722 24.3776C37.722 23.0635 37.2591 21.9136 36.3332 20.928C35.4073 19.9125 34.0633 19.4048 32.3012 19.4048C28.3289 19.4048 26.3428 21.7643 26.3428 26.4832H22.4004ZM34.138 48.5696H29.7924V44H34.138V48.5696Z" fill="#5a5e66"/>
<path fill-rule="evenodd" clip-rule="evenodd" d="M21.5771 27.2834L21.6 26.4612C21.6605 24.2814 21.9175 22.541 22.4185 21.3031C22.9159 20.0447 23.7084 18.9438 24.7785 18.0021C25.838 17.0401 27.0186 16.327 28.3178 15.8723L28.3236 15.8703C29.6345 15.4227 31.0064 15.2002 32.4349 15.2002C35.3208 15.2002 37.7727 16.0612 39.7297 17.8201C41.7419 19.571 42.7325 21.9201 42.7325 24.781C42.7325 26.0836 42.4715 27.2931 41.9377 28.3959C41.4235 29.49 40.3484 30.782 38.8131 32.2571C37.3196 33.6909 36.3533 34.6893 35.8805 35.273C35.4777 35.777 35.1481 36.4119 34.9041 37.1949C34.6983 37.9204 34.5945 38.9619 34.6235 40.3547L34.6405 41.1714H29.0813V40.3714C29.0813 38.6683 29.2169 37.26 29.5119 36.1766C29.8022 35.0811 30.2432 34.1092 30.8449 33.2736C31.4198 32.4749 32.4261 31.3494 33.8316 29.9138C35.2388 28.4466 36.0708 27.4489 36.4053 26.8828L36.4121 26.8714L36.4192 26.8603C36.7183 26.3901 36.9213 25.5986 36.9213 24.3778C36.9213 23.2736 36.5404 22.318 35.7494 21.4759L35.7413 21.4673C35.0072 20.6621 33.9051 20.205 32.3005 20.205C30.4773 20.205 29.2433 20.7399 28.4437 21.6898C27.6219 22.666 27.1421 24.2168 27.1421 26.4834V27.2834H21.5771ZM34.9373 49.3698H28.9917V43.2002H34.9373V49.3698Z" fill="#5a5e66"/>
</svg>
