<svg width="100" height="100" viewBox="0 0 100 100" fill="none" xmlns="http://www.w3.org/2000/svg">
<rect y="54" width="20" height="52" rx="2" transform="rotate(-90 0 54)" fill="url(#paint0_linear_1095_7807)" fill-opacity="0.2"/>
<rect y="29" width="20" height="52" rx="2" transform="rotate(-90 0 29)" fill="url(#paint1_linear_1095_7807)" fill-opacity="0.2"/>
<circle cx="72.5" cy="63.5" r="27.5" fill="url(#paint2_linear_1095_7807)" fill-opacity="0.2"/>
<rect x="24" y="24" width="52" height="52" rx="2" fill="url(#paint3_linear_1095_7807)"/>
<path d="M35 58L41.5 45L57 60.5L66 40" stroke="white" stroke-width="2"/>
<circle cx="35" cy="59" r="4" fill="white"/>
<circle cx="42" cy="45" r="4" fill="white"/>
<circle cx="57" cy="60" r="4" fill="white"/>
<circle cx="65" cy="41" r="4" fill="white"/>
<defs>
<linearGradient id="paint0_linear_1095_7807" x1="7.14286" y1="54.1686" x2="26.904" y2="57.8387" gradientUnits="userSpaceOnUse">
<stop stop-color="#3363FF"/>
<stop offset="1" stop-color="#149EFA" stop-opacity="0"/>
<stop offset="1" stop-color="#3363FF" stop-opacity="0"/>
</linearGradient>
<linearGradient id="paint1_linear_1095_7807" x1="7.14286" y1="29.1686" x2="26.904" y2="32.8387" gradientUnits="userSpaceOnUse">
<stop stop-color="#3363FF"/>
<stop offset="1" stop-color="#149EFA" stop-opacity="0"/>
<stop offset="1" stop-color="#3363FF" stop-opacity="0"/>
</linearGradient>
<linearGradient id="paint2_linear_1095_7807" x1="64.6429" y1="36.1783" x2="110.23" y2="58.192" gradientUnits="userSpaceOnUse">
<stop stop-color="#3363FF"/>
<stop offset="1" stop-color="#149EFA" stop-opacity="0"/>
<stop offset="1" stop-color="#3363FF" stop-opacity="0"/>
</linearGradient>
<linearGradient id="paint3_linear_1095_7807" x1="42.5714" y1="24.1686" x2="85.6724" y2="44.9815" gradientUnits="userSpaceOnUse">
<stop stop-color="#3363FF"/>
<stop offset="1" stop-color="#A7CFFF"/>
</linearGradient>
</defs>
</svg>
