<svg width="100" height="100" viewBox="0 0 100 100" fill="none" xmlns="http://www.w3.org/2000/svg">
<rect x="8" y="11" width="58" height="58" rx="29" fill="url(#paint0_linear_1095_7778)" fill-opacity="0.2"/>
<path d="M74 87C81.7219 87 88 80.4996 88 72.5C88 64.5066 81.7219 58 74 58C66.2781 58 60 64.5066 60 72.5C60 80.4934 66.2839 87 74 87Z" fill="url(#paint1_linear_1095_7778)" fill-opacity="0.2"/>
<rect x="23" y="52" width="54" height="24" rx="2" fill="url(#paint2_linear_1095_7778)"/>
<rect x="23" y="24" width="54" height="24" rx="2" fill="url(#paint3_linear_1095_7778)"/>
<circle cx="66" cy="64" r="3" fill="white"/>
<circle cx="66" cy="36" r="3" fill="white"/>
<defs>
<linearGradient id="paint0_linear_1095_7778" x1="28.7143" y1="11.188" x2="76.7884" y2="34.4025" gradientUnits="userSpaceOnUse">
<stop stop-color="#3363FF"/>
<stop offset="1" stop-color="#149EFA" stop-opacity="0"/>
<stop offset="1" stop-color="#4399FF" stop-opacity="0"/>
<stop offset="1" stop-color="#3363FF" stop-opacity="0"/>
</linearGradient>
<linearGradient id="paint1_linear_1095_7778" x1="70" y1="58.094" x2="93.5095" y2="69.055" gradientUnits="userSpaceOnUse">
<stop stop-color="#3363FF"/>
<stop offset="1" stop-color="#149EFA" stop-opacity="0"/>
<stop offset="1" stop-color="#4399FF" stop-opacity="0"/>
<stop offset="1" stop-color="#3363FF" stop-opacity="0"/>
</linearGradient>
<linearGradient id="paint2_linear_1095_7778" x1="42.2857" y1="52.0778" x2="67.5992" y2="79.5809" gradientUnits="userSpaceOnUse">
<stop stop-color="#3363FF"/>
<stop offset="1" stop-color="#A7CFFF"/>
</linearGradient>
<linearGradient id="paint3_linear_1095_7778" x1="42.2857" y1="24.0778" x2="67.5992" y2="51.5809" gradientUnits="userSpaceOnUse">
<stop stop-color="#3363FF"/>
<stop offset="1" stop-color="#A7CFFF"/>
</linearGradient>
</defs>
</svg>
