<svg width="16" height="16" viewBox="0 0 16 16" fill="none" xmlns="http://www.w3.org/2000/svg">
<path d="M8.25047 0.721688L14.1787 4.14434C14.3334 4.23365 14.4287 4.39872 14.4287 4.57735V11.4226C14.4287 11.6013 14.3334 11.7663 14.1787 11.8557L8.25047 15.2783C8.09577 15.3676 7.90517 15.3676 7.75047 15.2783L1.82227 11.8557C1.66757 11.7663 1.57227 11.6013 1.57227 11.4226V4.57735C1.57227 4.39872 1.66757 4.23365 1.82227 4.14434L7.75047 0.721688C7.90517 0.632371 8.09577 0.632371 8.25047 0.721688Z" stroke="currentColor" stroke-linejoin="round"/>
<path d="M8 8L4.5 6" stroke="currentColor" stroke-linecap="round" stroke-linejoin="round"/>
<path d="M8.00037 8.03109L11.4824 6" stroke="currentColor" stroke-linecap="round" stroke-linejoin="round"/>
<path d="M8.00061 7.99992L8.01855 12.031" stroke="currentColor" stroke-linecap="round" stroke-linejoin="round"/>
</svg>
