<svg width="16" height="16" viewBox="0 0 16 16" fill="none" xmlns="http://www.w3.org/2000/svg">
<g clip-path="url(#clip0_910_79109)">
<path d="M12.5 8V13.5H3.5V8C3.5 5.51472 5.51472 3.5 8 3.5C10.4853 3.5 12.5 5.51472 12.5 8Z" stroke="#333333"/>
<path d="M14 15.5H2C1.72386 15.5 1.5 15.2761 1.5 15V14.5V14C1.5 13.7239 1.72386 13.5 2 13.5H14C14.2761 13.5 14.5 13.7239 14.5 14V15C14.5 15.2761 14.2761 15.5 14 15.5Z" stroke="#333333"/>
<path d="M8 0.5V2" stroke="#333333" stroke-linecap="round" stroke-linejoin="round"/>
<path d="M3 2L4.06066 3.06066" stroke="#333333" stroke-linecap="round" stroke-linejoin="round"/>
<path d="M13.0605 2L11.9999 3.06066" stroke="#333333" stroke-linecap="round" stroke-linejoin="round"/>
<path d="M15.5 6.5L14 6.5" stroke="#333333" stroke-linecap="round" stroke-linejoin="round"/>
<path d="M2 6.5L0.5 6.5" stroke="#333333" stroke-linecap="round" stroke-linejoin="round"/>
<circle cx="8" cy="8" r="1.5" stroke="#333333"/>
</g>
<defs>
<clipPath id="clip0_910_79109">
<rect width="16" height="16" fill="white"/>
</clipPath>
</defs>
</svg>
