<svg width="56" height="56" viewBox="0 0 56 56" fill="none" xmlns="http://www.w3.org/2000/svg">
<rect x="4" y="4" width="48" height="48" rx="2" fill="#BBBBBB"/>
<path d="M10.5972 19.337L26.5289 27.031C26.9439 27.2283 27.4997 27.3331 28.0456 27.3331C28.5934 27.3331 29.1473 27.2283 29.5622 27.031L45.494 19.337C46.3339 18.9321 46.3339 18.2715 45.494 17.8667L29.5642 10.1747C29.0854 9.96684 28.5676 9.86383 28.0456 9.87259C27.5018 9.87259 26.9439 9.97526 26.531 10.1747L10.5972 17.8687C9.75928 18.2715 9.75928 18.9321 10.5972 19.337Z" fill="white"/>
<path d="M45.4985 26.5859L42.2014 24.9947C41.8167 24.8054 41.712 24.8155 41.3071 25.0028C40.9043 25.1921 29.5547 30.6726 29.5547 30.6726C29.1317 30.87 28.5859 30.9747 28.04 30.9747C27.4942 30.9747 26.9383 30.87 26.5234 30.6726C26.5234 30.6726 15.4779 25.3432 14.9603 25.0894C14.3963 24.8155 14.2352 24.8155 13.7256 25.0612L10.5815 26.5758C9.74365 26.9807 9.74365 27.6413 10.5815 28.0461L26.5133 35.7401C26.9283 35.9375 27.4841 36.0402 28.03 36.0402C28.5758 36.0402 29.1317 35.9375 29.5466 35.7381L45.4784 28.0441C46.3364 27.6494 46.3364 26.9907 45.4985 26.5859Z" fill="white"/>
<path d="M45.4982 35.3816L42.2011 33.7904C41.8164 33.601 41.7117 33.6091 41.3068 33.7984C40.904 33.9878 29.5645 39.4783 29.5645 39.4783C29.1415 39.6737 28.5957 39.7784 28.0478 39.7784C27.504 39.7784 26.9461 39.6737 26.5332 39.4763C26.5332 39.4763 15.4857 34.1469 14.9681 33.8931C14.4041 33.6192 14.243 33.6192 13.7354 33.8649L10.5893 35.3816C9.75147 35.7844 9.75147 36.445 10.5893 36.8498L26.5232 44.5438C26.9381 44.7493 27.494 44.846 28.0398 44.846C28.5836 44.846 29.1415 44.7412 29.5544 44.5438L45.4882 36.8498C46.3342 36.445 46.3342 35.7864 45.4983 35.3795L45.4982 35.3816Z" fill="white"/>
</svg>
