<svg width="24" height="24" viewBox="0 0 24 24" fill="none" xmlns="http://www.w3.org/2000/svg">
<g clip-path="url(#clip0_699_23422)">
<mask id="mask0_699_23422" style="mask-type:luminance" maskUnits="userSpaceOnUse" x="4" y="4" width="16" height="16">
<path d="M20 4H4V20H20V4Z" fill="white"/>
</mask>
<g mask="url(#mask0_699_23422)">
<path fill-rule="evenodd" clip-rule="evenodd" d="M14.347 17.521C15.008 16.129 15.434 14.607 15.559 13H17.91C17.566 15.038 16.197 16.731 14.347 17.521ZM6.091 13H8.441C8.566 14.607 8.993 16.129 9.654 17.521C7.804 16.731 6.435 15.038 6.091 13ZM9.654 6.478C8.993 7.87 8.566 9.392 8.441 11H6.091C6.435 8.961 7.804 7.268 9.654 6.478ZM13.554 13C13.399 14.705 12.847 16.294 12 17.687C11.154 16.294 10.601 14.705 10.447 13H13.554ZM10.447 11C10.601 9.294 11.154 7.705 12 6.313C12.847 7.705 13.399 9.294 13.554 11H10.447ZM17.91 11H15.559C15.434 9.392 15.008 7.87 14.347 6.478C16.197 7.268 17.566 8.961 17.91 11ZM12 4C7.582 4 4 7.581 4 12C4 16.418 7.582 20 12 20C16.419 20 20 16.418 20 12C20 7.581 16.419 4 12 4Z" fill="#3363FF"/>
</g>
</g>
<defs>
<clipPath id="clip0_699_23422">
<rect width="16" height="16" fill="white" transform="translate(4 4)"/>
</clipPath>
</defs>
</svg>
