<svg width="16" height="16" viewBox="0 0 16 16" fill="none" xmlns="http://www.w3.org/2000/svg">
<path d="M5 5C5 3.343 6.343 2 8 2C9.657 2 11 3.343 11 5C11 5.353 10.928 5.686 10.816 6H13V5C13 2.239 10.761 0 8 0C5.238 0 3 2.238 3 5V6C3 6 3.909 6 5.184 6C5.072 5.685 5 5.352 5 5ZM13 6H3C1.895 6 1 6.896 1 8V14C1 15.105 1.895 16 3 16H13C14.105 16 15 15.104 15 14V8C15 6.896 14.105 6 13 6Z" fill="black" fill-opacity="0.25"/>
<path fill-rule="evenodd" clip-rule="evenodd" d="M8.92332 11.385C9.29693 11.1043 9.53859 10.6575 9.53859 10.1542C9.53859 9.30452 8.8498 8.61572 8.00013 8.61572C7.15046 8.61572 6.46167 9.30452 6.46167 10.1542C6.46167 10.6576 6.70343 11.1045 7.07716 11.3851V12.9231C7.07716 13.4329 7.49044 13.8462 8.00024 13.8462C8.51004 13.8462 8.92332 13.4329 8.92332 12.9231V11.385Z" fill="white"/>
</svg>