<svg width="16" height="16" viewBox="0 0 16 16" fill="none" xmlns="http://www.w3.org/2000/svg">
<circle cx="7.5" cy="4.5" r="4" stroke="#333333"/>
<path d="M0.5 15C0.5 15.2761 0.723858 15.5 1 15.5C1.27614 15.5 1.5 15.2761 1.5 15H0.5ZM9.77467 10.1044C10.0212 10.2289 10.3219 10.1299 10.4463 9.8834C10.5708 9.63689 10.4718 9.33617 10.2253 9.21172L9.77467 10.1044ZM1.5 15C1.5 14.7122 1.5027 13.315 2.17321 12.0025C2.50438 11.3542 2.99424 10.7352 3.72321 10.2762C4.45102 9.81799 5.44756 9.5 6.82353 9.5V8.5C5.28774 8.5 4.10045 8.85701 3.19039 9.43001C2.28149 10.0023 1.67944 10.7708 1.28267 11.5475C0.497303 13.085 0.5 14.6878 0.5 15H1.5ZM6.82353 9.5C8.10541 9.5 9.06054 9.74391 9.77467 10.1044L10.2253 9.21172C9.34809 8.76887 8.2335 8.5 6.82353 8.5V9.5Z" fill="#333333"/>
<rect x="10" y="11" width="5" height="1" rx="0.5" fill="#333333"/>
<rect x="8" y="14" width="7" height="1" rx="0.5" fill="#333333"/>
</svg>
