<svg width="17" height="16" viewBox="0 0 17 16" fill="none" xmlns="http://www.w3.org/2000/svg">
<path d="M3.08496 3.66609L4.91793 7.38203H2.73418C2.71274 7.58732 2.70205 7.79359 2.70215 8C2.70215 8.79359 2.8573 9.56281 3.1634 10.2864C3.45918 10.9859 3.88293 11.6144 4.42293 12.1542C4.96277 12.6941 5.59121 13.118 6.29074 13.4137C7.01418 13.7198 7.78355 13.875 8.57715 13.875C9.37074 13.875 10.1401 13.7198 10.8636 13.4137C11.495 13.1467 12.0684 12.7755 12.5712 12.3086L13.1145 13.2494L13.1321 13.3153C11.9078 14.3655 10.3167 15 8.57715 15C4.71121 15 1.57715 11.8659 1.57715 8C1.57715 7.79172 1.58621 7.58563 1.60402 7.38203C1.6634 6.70359 1.81965 6.05281 2.05855 5.44375C2.2268 5.01523 2.56574 4.42492 3.0754 3.67281C3.07571 3.67234 3.07616 3.67198 3.0767 3.67178C3.07723 3.67158 3.07781 3.67156 3.07835 3.67172C3.0789 3.67188 3.07938 3.6722 3.07972 3.67265C3.08007 3.6731 3.08026 3.67365 3.08027 3.67422L3.08496 3.66609ZM8.57715 1C12.4431 1 15.5771 4.13391 15.5771 8C15.5771 8.22125 15.5668 8.44014 15.5467 8.65609C15.4806 9.36875 15.3075 10.0503 15.0436 10.6847C14.8116 11.2427 14.5082 11.7682 14.1409 12.248L14.0693 12.372L14.0587 12.3536C14.0539 12.3598 14.0489 12.3659 14.044 12.372L14.0221 12.2902L12.2364 8.65609H14.4162C14.4402 8.43822 14.4522 8.21919 14.4521 8C14.4521 7.20641 14.297 6.43703 13.9909 5.71344C13.6951 5.01406 13.2714 4.38563 12.7314 3.84578C12.1915 3.30578 11.5631 2.88203 10.8636 2.58625C10.1401 2.28016 9.37074 2.125 8.57715 2.125C7.78355 2.125 7.01418 2.28016 6.29074 2.58625C5.64699 2.85844 5.06355 3.23891 4.55387 3.71875L4.00309 2.76469L3.98918 2.71297C5.21777 1.64594 6.82199 1 8.57715 1Z" fill="#3363FF"/>
</svg>
