<svg width="25" height="24" viewBox="0 0 25 24" fill="none" xmlns="http://www.w3.org/2000/svg">
<g clip-path="url(#clip0_2865_150998)">
<path fill-rule="evenodd" clip-rule="evenodd" d="M1.13708 3.26819C0.712612 3.74801 0.666748 4.0542 0.666748 4.18484C0.666748 4.31548 0.712606 4.62346 1.13706 5.10326C1.57206 5.59498 2.30605 6.14496 3.38322 6.65745C5.53126 7.67943 8.66328 8.37128 12.2784 8.37128C15.8935 8.37128 19.0656 7.67942 21.2545 6.65264C22.3528 6.13748 23.1058 5.58375 23.5535 5.08731C23.9921 4.60086 24.0317 4.29915 24.0317 4.18655C24.0317 4.07394 23.9921 3.77041 23.5535 3.28396C23.1058 2.78752 22.3528 2.2338 21.2545 1.71864C19.0656 0.691855 15.8935 0 12.2784 0C8.6633 0 5.5313 0.691896 3.38326 1.71393C2.30609 2.22644 1.57209 2.77644 1.13708 3.26819ZM24.0317 8.711C23.6758 8.91591 23.3067 9.10695 22.928 9.28461C20.0943 10.6138 16.3276 11.3792 12.2784 11.3792C8.22932 11.3792 4.49345 10.6139 1.68967 9.27992C1.3392 9.11318 0.997264 8.93468 0.666748 8.74402V11.8442C0.666748 12.3167 1.13511 13.4822 3.47663 14.665C5.63771 15.7567 8.77251 16.4939 12.3492 16.4939C15.926 16.4939 19.0608 15.7567 21.2219 14.665C23.5634 13.4822 24.0317 12.3167 24.0317 11.8442V8.711ZM24.0317 16.6711C23.6929 16.8792 23.3478 17.0704 23.0021 17.245C20.1662 18.6776 16.3977 19.5018 12.3492 19.5018C8.30081 19.5018 4.53232 18.6776 1.6964 17.245C1.35071 17.0704 1.00559 16.8792 0.666748 16.6711V19.5018C0.666748 19.6324 0.712609 19.9386 1.13707 20.4184C1.57208 20.9102 2.30607 21.4601 3.38324 21.9726C5.53128 22.9946 8.6633 23.6865 12.2784 23.6865C15.8935 23.6865 19.0656 22.9947 21.2545 21.9679C22.3528 21.4527 23.1058 20.899 23.5535 20.4026C23.9921 19.9161 24.0317 19.6144 24.0317 19.5018V16.6711Z" fill="#3363FF"/>
</g>
<defs>
<clipPath id="clip0_2865_150998">
<rect width="24" height="24" fill="white" transform="translate(0.666748)"/>
</clipPath>
</defs>
</svg>
