<svg width="16" height="16" viewBox="0 0 16 16" fill="none" xmlns="http://www.w3.org/2000/svg">
<circle cx="7" cy="5.5" r="4" stroke="currentColor"/>
<path d="M12.6001 7C13.3849 6.66337 13.9334 5.89456 13.9334 5C13.9334 4.10544 13.3849 3.33663 12.6001 3" stroke="currentColor" stroke-linecap="round"/>
<path d="M13.5 14V14C13.5 11.7909 11.7091 10 9.5 10H4.5C2.29086 10 0.5 11.7909 0.5 14V14" stroke="currentColor" stroke-linecap="round"/>
<path d="M16 13C16 13.2761 15.7761 13.5 15.5 13.5C15.2239 13.5 15 13.2761 15 13H16ZM13.2431 9.42898C13.0062 9.28713 12.9292 8.98007 13.071 8.74315C13.2129 8.50623 13.5199 8.42916 13.7569 8.57102L13.2431 9.42898ZM15 13C15 12.8199 14.9996 12.1805 14.7727 11.4525C14.5467 10.7279 14.1065 9.94593 13.2431 9.42898L13.7569 8.57102C14.8935 9.25156 15.4533 10.2758 15.7273 11.1548C16.0004 12.0305 16 12.7924 16 13H15Z" fill="currentColor"/>
</svg>
