<svg width="100" height="100" viewBox="0 0 100 100" fill="none" xmlns="http://www.w3.org/2000/svg">
<rect x="12" y="13" width="58" height="58" rx="29" fill="url(#paint0_linear_301_457)" fill-opacity="0.2"/>
<path d="M74 87C81.7219 87 88 80.4996 88 72.5C88 64.5066 81.7219 58 74 58C66.2781 58 60 64.5066 60 72.5C60 80.4934 66.2839 87 74 87Z" fill="url(#paint1_linear_301_457)" fill-opacity="0.2"/>
<path d="M55.5537 52.0002H44.5493C34.3177 52.0002 26 60.1984 26 70.2744V71.3605C26 76.6255 34.1889 76.6255 44.5493 76.6255H55.5599C65.5154 76.6255 74.1091 76.6255 74.1091 71.3605V70.2744C74.103 60.1984 65.7853 52.0002 55.5537 52.0002Z" fill="url(#paint2_linear_301_457)"/>
<path d="M49.5359 51.9637C57.6589 51.9637 64.2632 45.4714 64.2632 37.4818C64.2632 29.4984 57.6589 23 49.5359 23C41.4128 23 34.8086 29.4984 34.8086 37.4818C34.8086 45.4652 41.419 51.9637 49.5359 51.9637Z" fill="url(#paint3_linear_301_457)"/>
<path d="M44.6545 42.6364C46.0235 43.8688 47.7233 44.6 49.5622 44.6C51.4031 44.6 53.1038 43.8691 54.4727 42.6364" stroke="white" stroke-width="2" stroke-linecap="round"/>
<defs>
<linearGradient id="paint0_linear_301_457" x1="32.7143" y1="13.188" x2="80.7884" y2="36.4025" gradientUnits="userSpaceOnUse">
<stop stop-color="#3363FF"/>
<stop offset="1" stop-color="#149EFA" stop-opacity="0"/>
<stop offset="1" stop-color="#4399FF" stop-opacity="0"/>
<stop offset="1" stop-color="#3363FF" stop-opacity="0"/>
</linearGradient>
<linearGradient id="paint1_linear_301_457" x1="70" y1="58.094" x2="93.5095" y2="69.055" gradientUnits="userSpaceOnUse">
<stop stop-color="#3363FF"/>
<stop offset="1" stop-color="#149EFA" stop-opacity="0"/>
<stop offset="1" stop-color="#4399FF" stop-opacity="0"/>
<stop offset="1" stop-color="#3363FF" stop-opacity="0"/>
</linearGradient>
<linearGradient id="paint2_linear_301_457" x1="43.1818" y1="52.0801" x2="69.2" y2="76.6255" gradientUnits="userSpaceOnUse">
<stop stop-color="#3363FF"/>
<stop offset="1" stop-color="#A7CFFF"/>
</linearGradient>
<linearGradient id="paint3_linear_301_457" x1="45.3281" y1="23.0939" x2="69.5851" y2="35.0059" gradientUnits="userSpaceOnUse">
<stop stop-color="#3363FF"/>
<stop offset="1" stop-color="#A7CFFF"/>
</linearGradient>
</defs>
</svg>
