<svg width="16" height="16" viewBox="0 0 16 16" fill="none" xmlns="http://www.w3.org/2000/svg">
<path d="M14.9849 3.36939C14.9353 2.88219 14.5761 2.48292 14.0968 2.38226C13.1251 2.22951 12.1654 2.00858 11.2246 1.72112C10.3034 1.34336 9.43965 0.838477 8.65846 0.221177C8.24895 -0.0737256 7.69658 -0.0737256 7.2869 0.221177C6.54739 0.905123 5.6638 1.41438 4.70129 1.71141C3.81004 2.07997 2.86852 2.31266 1.90819 2.40169C1.41834 2.4808 1.05139 2.89313 1.02984 3.38882C1.0083 3.8845 1 5.86617 1 8.04669C1 11.9941 5.65787 15.8141 7.9876 15.8141C10.3164 15.8141 14.2646 13.1195 14.8961 8.10637C15.0541 5.14534 14.9849 3.36869 14.9849 3.36869V3.36939Z" fill="black" fill-opacity="0.25"/>
<path d="M5.39746 7.49574L7.33489 9.82065L11.2097 5.9458" stroke="white" stroke-width="1.25" stroke-linecap="round" stroke-linejoin="round"/>
</svg>