<svg width="16" height="16" viewBox="0 0 16 16" fill="none" xmlns="http://www.w3.org/2000/svg">
<path d="M1.5 1.5L14.5 1.5V14.5H1.5L1.5 1.5Z" stroke="currentColor"/>
<path d="M11.329 6.20567C11.4704 5.96846 11.3927 5.66156 11.1555 5.52019C10.9182 5.37883 10.6113 5.45653 10.47 5.69374L11.329 6.20567ZM7.94975 10.8995L7.52023 11.1554C7.61042 11.3067 7.77358 11.3995 7.94975 11.3995C8.12591 11.3995 8.28908 11.3067 8.37926 11.1554L7.94975 10.8995ZM5.42951 5.69374C5.28815 5.45653 4.98125 5.37883 4.74404 5.52019C4.50682 5.66156 4.42912 5.96846 4.57049 6.20567L5.42951 5.69374ZM10.47 5.69374L7.52023 10.6435L8.37926 11.1554L11.329 6.20567L10.47 5.69374ZM8.37926 10.6435L5.42951 5.69374L4.57049 6.20567L7.52023 11.1554L8.37926 10.6435Z" fill="currentColor"/>
</svg>
