<svg width="32" height="32" viewBox="0 0 32 32" fill="none" xmlns="http://www.w3.org/2000/svg">
<circle cx="16" cy="16" r="16" fill="#3363FF"/>
<path d="M18.1973 11.373H22.8096L22.8086 11.374H27.1865C28.944 11.374 30.0427 13.2767 29.1641 14.7988L24.5508 22.7891C23.5312 24.5549 21.6465 25.6425 19.6074 25.6426H9.95605L18.1943 11.374H13.8672C13.0517 11.3741 12.2985 11.8095 11.8906 12.5156L3.86035 26.4229C2.73119 25.1089 1.81225 23.6094 1.1543 21.9766L8.26465 9.66113C9.28449 7.89468 11.1702 6.80719 13.21 6.80762H20.8555L18.1973 11.373ZM16.877 21.6475H19.2783C20.0938 21.6473 20.8471 21.2121 21.2549 20.5059L23.7266 16.2256C23.9458 15.8451 23.6707 15.3701 23.2314 15.3701H20.501L16.877 21.6475Z" fill="white"/>
</svg>
