<svg width="20" height="20" viewBox="0 0 20 20" fill="none" xmlns="http://www.w3.org/2000/svg">
<path fill-rule="evenodd" clip-rule="evenodd" d="M20 10C20 15.5228 15.5228 20 10 20C9.95914 20 9.91835 19.9998 9.87761 19.9993L10.5615 17.4469C14.468 16.9919 17.5 13.6715 17.5 9.64286C17.5 5.30348 13.9822 1.78571 9.64286 1.78571C5.30348 1.78571 1.78571 5.30348 1.78571 9.64286C1.78571 11.4475 2.3941 13.11 3.41695 14.4365L2.75795 16.8959C1.04905 15.1017 0 12.6734 0 10C0 4.47715 4.47715 0 10 0C15.5228 0 20 4.47715 20 10ZM5.50032 16.3205L4.89014 18.5977C5.65999 19.0562 6.49663 19.4143 7.38199 19.6538L8.00491 17.329C7.10322 17.1378 6.25867 16.7919 5.50032 16.3205Z" fill="#3363FF"/>
<path d="M13.8768 9.5555C14.6843 10.052 15.0696 11.02 14.8243 11.9356L12.8561 19.2811L10.2688 18.5878L12.857 8.92858L13.8768 9.5555Z" fill="#3363FF"/>
<path d="M3.93623 6.5062C4.21498 5.61034 5.04411 5 5.98233 5H15L14.6466 6.16017C14.3718 7.06218 13.5397 7.67857 12.5967 7.67857L3.57144 7.67857L3.93623 6.5062Z" fill="#3363FF"/>
<path d="M10.6985 7.27277L7.62872 18.7294L5.04142 18.0361L8.11122 6.5795L10.6985 7.27277Z" fill="#3363FF"/>
</svg>
